<?xml version="1.0" encoding="UTF-8" standalone="no"?>
<!-- Created with Inkscape (http://www.inkscape.org/) -->

<svg
   xmlns:dc="http://purl.org/dc/elements/1.1/"
   xmlns:cc="http://creativecommons.org/ns#"
   xmlns:rdf="http://www.w3.org/1999/02/22-rdf-syntax-ns#"
   xmlns:svg="http://www.w3.org/2000/svg"
   xmlns="http://www.w3.org/2000/svg"
   xmlns:sodipodi="http://sodipodi.sourceforge.net/DTD/sodipodi-0.dtd"
   xmlns:inkscape="http://www.inkscape.org/namespaces/inkscape"
   version="1.1"
   id="svg2"
   xml:space="preserve"
   width="666.66669"
   height="666.66669"
   viewBox="0 0 666.66669 666.66669"
   sodipodi:docname="ilustracion.svg"
   inkscape:version="0.92.3 (2405546, 2018-03-11)"><metadata
     id="metadata8"><rdf:RDF><cc:Work
         rdf:about=""><dc:format>image/svg+xml</dc:format><dc:type
           rdf:resource="http://purl.org/dc/dcmitype/StillImage" /><dc:title></dc:title></cc:Work></rdf:RDF></metadata><defs
     id="defs6"><inkscape:perspective
       sodipodi:type="inkscape:persp3d"
       inkscape:vp_x="0 : 333.33335 : 1"
       inkscape:vp_y="0 : 1000 : 0"
       inkscape:vp_z="666.66669 : 333.33335 : 1"
       inkscape:persp3d-origin="333.33335 : 222.22223 : 1"
       id="perspective708" /><clipPath
       clipPathUnits="userSpaceOnUse"
       id="clipPath22"><path
         d="m 2123.58,498.82 c -1978.068,0.141 -1833.432,1627.04 -926.02,1788.87 232.94,41.53 408.34,109.79 544.28,199.22 v -13.85 l 41.71,-11.57 1134.83,168.8 v 125.17 405.74 l 265.22,39.45 c -27.06,-42.04 -40.58,-90.43 -38.01,-132.66 0,-0.01 0,-0.01 0,-0.02 0,-0.1 0.01,-0.21 0.02,-0.31 0,-0.03 0,-0.06 0,-0.09 0.01,-0.08 0.01,-0.16 0.02,-0.23 0,-0.08 0.01,-0.16 0.01,-0.23 0,-0.04 0.01,-0.07 0.01,-0.1 1.96,-29.37 11.73,-55.69 30.19,-74.81 10.65,-26.04 24.98,-48.63 40.6,-61.52 0.01,-0.01 0.01,-0.02 0.02,-0.02 0.06,-0.05 0.12,-0.1 0.17,-0.14 0.01,-0.01 0.01,-0.01 0.01,-0.01 0.06,-0.05 0.12,-0.09 0.17,-0.14 0.02,-0.01 0.03,-0.02 0.04,-0.03 0.05,-0.04 0.1,-0.08 0.14,-0.12 0.02,-0.01 0.03,-0.02 0.04,-0.03 0.06,-0.04 0.11,-0.08 0.16,-0.13 0.02,-0.01 0.04,-0.03 0.06,-0.04 0.04,-0.03 0.08,-0.07 0.12,-0.1 0.02,-0.01 0.03,-0.03 0.05,-0.04 0.05,-0.04 0.11,-0.09 0.16,-0.13 0.02,-0.01 0.03,-0.02 0.05,-0.04 0.04,-0.03 0.08,-0.06 0.12,-0.09 0.02,-0.02 0.04,-0.03 0.06,-0.05 0.05,-0.04 0.1,-0.08 0.16,-0.12 0.01,-0.01 0.02,-0.02 0.03,-0.03 0.05,-0.04 0.09,-0.07 0.14,-0.11 0.02,-0.01 0.03,-0.02 0.05,-0.03 0.06,-0.05 0.11,-0.09 0.17,-0.13 v 0 c 23.85,-18.35 30.18,-39.61 30.19,-56.57 0,-15.02 -4.96,-26.67 -7.13,-29.92 v 0 c -0.01,-0.01 -0.02,-0.02 -0.03,-0.03 0,-0.01 -0.01,-0.02 -0.01,-0.02 0,-0.01 0,-0.01 -0.01,-0.02 0,0 -0.01,-0.01 -0.01,-0.02 v 0 c -4.37,-6.92 16.31,-17.23 40.42,-24.12 22.05,-6.3 68,-74.75 96.07,-74.75 2.75,0 5.34,0.66 7.71,2.1 20.63,12.56 55.21,53.02 73.36,81.23 9.4,-7.4 19.15,-14.88 29.26,-22.42 32.87,-24.52 56.77,-54.61 74.07,-86.48 -8.87,-6.01 -25.39,-12.34 -55.62,-12.34 -6.94,0 -14.59,0.33 -23.04,1.08 -5.02,0.29 -9.94,0.47 -14.77,0.47 -59.49,0 -106.04,-27.09 -177.41,-200.59 l -211.23,36.95 -67.24,-8.24 -0.42,0.12 v -0.17 l -1567.91,-192.1 766.33,-220.08 v -82.3 l 801.58,111.16 V 1278.08 L 1444.61,975.41 2210.94,755.332 2510.47,792.34 2889.73,622.191 3305.2,730.719 3447.83,679.891 C 3147.21,585.5 2766.83,523.609 2293.58,502.66 c -58.42,-2.59 -114.9,-3.851 -170,-3.84 m 1732.15,354.489 -155.71,53.89 301.62,68.481 -857.22,324.42 v 870.29 l 24.81,3.44 c 17.84,-5.7 32.18,-9.89 40.99,-11.77 1.13,-0.24 2.31,-0.36 3.53,-0.36 10.77,0 25,9.2 40.91,23.98 l 228.55,31.69 c 16.61,-70.71 31.65,-158.06 20.65,-208.56 21.62,-2.4 62.39,-4.28 106.67,-4.28 78.91,0 168.97,5.97 181.8,25.65 -14.51,60.96 -4.96,148.73 9.57,231.39 l 263.95,36.6 v 73.12 l -233.6,40.86 c 2.07,10.09 3.93,19.44 5.48,27.94 10.19,55.64 10.26,116.64 -4.92,166.37 63.98,56.23 0.38,236.5 -137.07,379.18 -56.7,58.86 -70.51,190.96 -166.45,266.43 l 240.25,35.74 c 42.06,6.25 73.2,42.37 73.2,84.9 v 487.82 c 0,47.97 -39.03,85.85 -85.64,85.85 -3.59,0 -7.23,-0.22 -10.9,-0.69 -204,-25.75 -674.9,-84.66 -858.46,-107.61 -42.95,-5.38 -75.17,-41.89 -75.17,-85.18 v -234.76 l -514.23,-66.3 c 3.58,11.22 7.17,22.4 10.8,33.69 l 353.98,52.65 c 54.46,8.1 94.77,54.86 94.77,109.93 v 284.07 c 0,53.49 -37.48,97.28 -86.42,108.41 140.11,80.79 314.08,122.2 498.17,122.2 448.95,0 958.08,-246.33 1182.56,-768.15 222.09,-516.26 -51.25,-696.7 51.25,-1448.39 59.52,-436.5 -82.03,-827.15 -547.72,-1092.941"
         id="path20"
         inkscape:connector-curvature="0" /></clipPath><linearGradient
       x1="0"
       y1="0"
       x2="1"
       y2="0"
       gradientUnits="userSpaceOnUse"
       gradientTransform="matrix(3883.74,0,0,-3883.74,558.129,2330.8)"
       spreadMethod="pad"
       id="linearGradient30"><stop
         style="stop-opacity:1;stop-color:#f7f3fe"
         offset="0"
         id="stop24" /><stop
         style="stop-opacity:1;stop-color:#f7f3fe"
         offset="0.00033804"
         id="stop26" /><stop
         style="stop-opacity:1;stop-color:#ece5fc"
         offset="1"
         id="stop28" /></linearGradient><clipPath
       clipPathUnits="userSpaceOnUse"
       id="clipPath42"><path
         d="M 2889.73,622.191 2510.47,792.34 2210.94,755.332 1444.61,975.41 3012.52,1278.08 v -110.41 l 67.7,-19.25 64.2,8.59 v 143.09 l 857.22,-324.42 -301.62,-68.481 155.71,-53.89 C 3740.31,787.441 3604.94,729.219 3447.83,679.891 L 3305.2,730.719 2889.73,622.191"
         id="path40"
         inkscape:connector-curvature="0" /></clipPath><linearGradient
       x1="0"
       y1="0"
       x2="1"
       y2="0"
       gradientUnits="userSpaceOnUse"
       gradientTransform="matrix(3883.74,0,0,-3883.74,558.129,2330.8)"
       spreadMethod="pad"
       id="linearGradient50"><stop
         style="stop-opacity:1;stop-color:#d4d6fd"
         offset="0"
         id="stop44" /><stop
         style="stop-opacity:1;stop-color:#d4d6fd"
         offset="0.00033804"
         id="stop46" /><stop
         style="stop-opacity:1;stop-color:#cccbfb"
         offset="1"
         id="stop48" /></linearGradient><clipPath
       clipPathUnits="userSpaceOnUse"
       id="clipPath118"><path
         d="m 2309.14,3485.53 c 24.15,74.95 49.69,151.48 78.41,228.91 52.58,141.74 153.55,250.98 283.92,326.15 48.94,-11.13 86.42,-54.92 86.42,-108.41 v -284.07 c 0,-55.07 -40.31,-101.83 -94.77,-109.93 l -353.98,-52.65"
         id="path116"
         inkscape:connector-curvature="0" /></clipPath><linearGradient
       x1="0"
       y1="0"
       x2="1"
       y2="0"
       gradientUnits="userSpaceOnUse"
       gradientTransform="matrix(3883.74,0,0,-3883.74,558.129,2330.8)"
       spreadMethod="pad"
       id="linearGradient126"><stop
         style="stop-opacity:1;stop-color:#a1b7f6"
         offset="0"
         id="stop120" /><stop
         style="stop-opacity:1;stop-color:#a1b7f6"
         offset="0.00033804"
         id="stop122" /><stop
         style="stop-opacity:1;stop-color:#9fb4f6"
         offset="1"
         id="stop124" /></linearGradient><clipPath
       clipPathUnits="userSpaceOnUse"
       id="clipPath142"><path
         d="m 2918.38,3161.2 v 90.13 l 548.46,80.44 v 463.26 c -7.79,-1.38 -573.99,-67.4 -573.99,-67.4 v -209.77 l -26.8,7.17 v 0 l -53.48,-6.89 v 234.76 c 0,43.29 32.22,79.8 75.17,85.18 183.56,22.95 654.46,81.86 858.46,107.61 3.67,0.47 7.31,0.69 10.9,0.69 46.61,0 85.64,-37.88 85.64,-85.85 v -487.82 c 0,-42.53 -31.14,-78.65 -73.2,-84.9 l -240.25,-35.74 c -30.55,24.03 -69.42,42.32 -120.67,50.68 -13.36,2.18 -26.3,3.21 -38.82,3.21 -83.95,0 -148.34,-46.47 -186.2,-105.31 l -265.22,-39.45 m -52.8,343.01 v 0.18 l 27.27,3.43 v -0.14 c -7.57,-0.97 -16.72,-2.13 -27.27,-3.47"
         id="path140"
         inkscape:connector-curvature="0" /></clipPath><linearGradient
       x1="0"
       y1="0"
       x2="1"
       y2="0"
       gradientUnits="userSpaceOnUse"
       gradientTransform="matrix(3883.74,0,0,-3883.74,558.129,2330.8)"
       spreadMethod="pad"
       id="linearGradient150"><stop
         style="stop-opacity:1;stop-color:#a9bcf7"
         offset="0"
         id="stop144" /><stop
         style="stop-opacity:1;stop-color:#a9bcf7"
         offset="0.00033804"
         id="stop146" /><stop
         style="stop-opacity:1;stop-color:#a6b9f7"
         offset="1"
         id="stop148" /></linearGradient><clipPath
       clipPathUnits="userSpaceOnUse"
       id="clipPath286"><path
         d="m 3241.36,2842.57 v 0 0 m 0.01,0.02 c 0.01,0.01 0.01,0.01 0.01,0.02 0,-0.01 0,-0.01 -0.01,-0.02 m 0.02,0.04 c 0.01,0.01 0.02,0.02 0.03,0.03 -0.01,-0.01 -0.02,-0.02 -0.03,-0.03 m -23.2,86.65 c -0.02,0.01 -0.03,0.02 -0.05,0.03 0.01,-0.01 0.04,-0.02 0.05,-0.03 m -0.19,0.14 c -0.01,0.01 -0.02,0.02 -0.03,0.03 0.01,-0.01 0.02,-0.02 0.03,-0.03 m -0.19,0.15 c -0.02,0.02 -0.04,0.03 -0.06,0.05 0.02,-0.02 0.04,-0.03 0.06,-0.05 m -0.18,0.14 c -0.02,0.02 -0.03,0.03 -0.05,0.04 0.02,-0.01 0.03,-0.02 0.05,-0.04 m -0.21,0.17 c -0.02,0.01 -0.03,0.03 -0.05,0.04 0.02,-0.01 0.03,-0.03 0.05,-0.04 m -0.17,0.14 c -0.02,0.01 -0.04,0.03 -0.06,0.04 0.02,-0.01 0.04,-0.03 0.06,-0.04 m -0.22,0.17 c -0.01,0.01 -0.02,0.02 -0.04,0.03 0.02,-0.01 0.03,-0.02 0.04,-0.03 m -0.18,0.15 c -0.01,0.01 -0.02,0.02 -0.04,0.03 0.02,-0.01 0.03,-0.02 0.04,-0.03 m -0.21,0.17 c 0,0 0,0 -0.01,0.01 0.01,-0.01 0.01,-0.01 0.01,-0.01 m -0.18,0.15 c -0.01,0 -0.01,0.01 -0.02,0.02 0.01,-0.01 0.01,-0.02 0.02,-0.02"
         id="path284"
         inkscape:connector-curvature="0" /></clipPath><linearGradient
       x1="0"
       y1="0"
       x2="1"
       y2="0"
       gradientUnits="userSpaceOnUse"
       gradientTransform="matrix(3883.74,0,0,-3883.74,558.129,2330.8)"
       spreadMethod="pad"
       id="linearGradient294"><stop
         style="stop-opacity:1;stop-color:#f7f4fe"
         offset="0"
         id="stop288" /><stop
         style="stop-opacity:1;stop-color:#f7f4fe"
         offset="0.00033804"
         id="stop290" /><stop
         style="stop-opacity:1;stop-color:#ede6fc"
         offset="1"
         id="stop292" /></linearGradient><clipPath
       clipPathUnits="userSpaceOnUse"
       id="clipPath310"><path
         d="m 3175.84,2992.2 c -18.46,19.12 -28.23,45.44 -30.19,74.81 1.9,-28.42 11.12,-54.01 28.45,-72.95 0.57,-0.63 1.15,-1.25 1.74,-1.86 v 0 m -30.2,74.91 c 0,0.07 -0.01,0.15 -0.01,0.23 0,-0.08 0.01,-0.16 0.01,-0.23 m -0.03,0.46 c 0,0.03 0,0.06 0,0.09 0,-0.04 0,-0.06 0,-0.09 m -0.02,0.4 c 0,0.01 0,0.01 0,0.02 0,-0.01 0,-0.01 0,-0.02"
         id="path308"
         inkscape:connector-curvature="0" /></clipPath><linearGradient
       x1="0"
       y1="0"
       x2="1"
       y2="0"
       gradientUnits="userSpaceOnUse"
       gradientTransform="matrix(3883.74,0,0,-3883.74,558.129,2330.8)"
       spreadMethod="pad"
       id="linearGradient318"><stop
         style="stop-opacity:1;stop-color:#f7f4fe"
         offset="0"
         id="stop312" /><stop
         style="stop-opacity:1;stop-color:#f7f4fe"
         offset="0.00033804"
         id="stop314" /><stop
         style="stop-opacity:1;stop-color:#ede6fc"
         offset="1"
         id="stop316" /></linearGradient></defs><sodipodi:namedview
     pagecolor="#ffffff"
     bordercolor="#666666"
     borderopacity="1"
     objecttolerance="10"
     gridtolerance="10"
     guidetolerance="10"
     inkscape:pageopacity="0"
     inkscape:pageshadow="2"
     inkscape:window-width="1366"
     inkscape:window-height="684"
     id="namedview4"
     showgrid="false"
     inkscape:zoom="0.70799998"
     inkscape:cx="495.95384"
     inkscape:cy="300.25787"
     inkscape:window-x="0"
     inkscape:window-y="28"
     inkscape:window-maximized="1"
     inkscape:current-layer="g12" /><g
     id="g10"
     inkscape:groupmode="layer"
     inkscape:label="ink_ext_XXXXXX"
     transform="matrix(1.3333333,0,0,-1.3333333,0,666.66667)"><g
       id="g12"
       transform="scale(0.1)"><g
         id="g1693"
         transform="matrix(-1.275493,0,0,1.355616,5683.558,-654.08323)"><g
           style="fill:#ececec"
           id="g16"><g
             style="fill:#ececec"
             clip-path="url(#clipPath22)"
             id="g18"><path
               inkscape:connector-curvature="0"
               id="path32"
               style="fill:#ececec;fill-opacity:1;fill-rule:nonzero;stroke:none"
               d="m 2123.58,498.82 c -1978.068,0.141 -1833.432,1627.04 -926.02,1788.87 232.94,41.53 408.34,109.79 544.28,199.22 v -13.85 l 41.71,-11.57 1134.83,168.8 v 125.17 405.74 l 265.22,39.45 c -27.06,-42.04 -40.58,-90.43 -38.01,-132.66 0,-0.01 0,-0.01 0,-0.02 0,-0.1 0.01,-0.21 0.02,-0.31 0,-0.03 0,-0.06 0,-0.09 0.01,-0.08 0.01,-0.16 0.02,-0.23 0,-0.08 0.01,-0.16 0.01,-0.23 0,-0.04 0.01,-0.07 0.01,-0.1 1.96,-29.37 11.73,-55.69 30.19,-74.81 10.65,-26.04 24.98,-48.63 40.6,-61.52 0.01,-0.01 0.01,-0.02 0.02,-0.02 0.06,-0.05 0.12,-0.1 0.17,-0.14 0.01,-0.01 0.01,-0.01 0.01,-0.01 0.06,-0.05 0.12,-0.09 0.17,-0.14 0.02,-0.01 0.03,-0.02 0.04,-0.03 0.05,-0.04 0.1,-0.08 0.14,-0.12 0.02,-0.01 0.03,-0.02 0.04,-0.03 0.06,-0.04 0.11,-0.08 0.16,-0.13 0.02,-0.01 0.04,-0.03 0.06,-0.04 0.04,-0.03 0.08,-0.07 0.12,-0.1 0.02,-0.01 0.03,-0.03 0.05,-0.04 0.05,-0.04 0.11,-0.09 0.16,-0.13 0.02,-0.01 0.03,-0.02 0.05,-0.04 0.04,-0.03 0.08,-0.06 0.12,-0.09 0.02,-0.02 0.04,-0.03 0.06,-0.05 0.05,-0.04 0.1,-0.08 0.16,-0.12 0.01,-0.01 0.02,-0.02 0.03,-0.03 0.05,-0.04 0.09,-0.07 0.14,-0.11 0.02,-0.01 0.03,-0.02 0.05,-0.03 0.06,-0.05 0.11,-0.09 0.17,-0.13 v 0 c 23.85,-18.35 30.18,-39.61 30.19,-56.57 0,-15.02 -4.96,-26.67 -7.13,-29.92 v 0 c -0.01,-0.01 -0.02,-0.02 -0.03,-0.03 0,-0.01 -0.01,-0.02 -0.01,-0.02 0,-0.01 0,-0.01 -0.01,-0.02 0,0 -0.01,-0.01 -0.01,-0.02 v 0 c -4.37,-6.92 16.31,-17.23 40.42,-24.12 22.05,-6.3 68,-74.75 96.07,-74.75 2.75,0 5.34,0.66 7.71,2.1 20.63,12.56 55.21,53.02 73.36,81.23 9.4,-7.4 19.15,-14.88 29.26,-22.42 32.87,-24.52 56.77,-54.61 74.07,-86.48 -8.87,-6.01 -25.39,-12.34 -55.62,-12.34 -6.94,0 -14.59,0.33 -23.04,1.08 -5.02,0.29 -9.94,0.47 -14.77,0.47 -59.49,0 -106.04,-27.09 -177.41,-200.59 l -211.23,36.95 -67.24,-8.24 -0.42,0.12 v -0.17 l -1567.91,-192.1 766.33,-220.08 v -82.3 l 801.58,111.16 V 1278.08 L 1444.61,975.41 2210.94,755.332 2510.47,792.34 2889.73,622.191 3305.2,730.719 3447.83,679.891 C 3147.21,585.5 2766.83,523.609 2293.58,502.66 c -58.42,-2.59 -114.9,-3.851 -170,-3.84 m 1732.15,354.489 -155.71,53.89 301.62,68.481 -857.22,324.42 v 870.29 l 24.81,3.44 c 17.84,-5.7 32.18,-9.89 40.99,-11.77 1.13,-0.24 2.31,-0.36 3.53,-0.36 10.77,0 25,9.2 40.91,23.98 l 228.55,31.69 c 16.61,-70.71 31.65,-158.06 20.65,-208.56 21.62,-2.4 62.39,-4.28 106.67,-4.28 78.91,0 168.97,5.97 181.8,25.65 -14.51,60.96 -4.96,148.73 9.57,231.39 l 263.95,36.6 v 73.12 l -233.6,40.86 c 2.07,10.09 3.93,19.44 5.48,27.94 10.19,55.64 10.26,116.64 -4.92,166.37 63.98,56.23 0.38,236.5 -137.07,379.18 -56.7,58.86 -70.51,190.96 -166.45,266.43 l 240.25,35.74 c 42.06,6.25 73.2,42.37 73.2,84.9 v 487.82 c 0,47.97 -39.03,85.85 -85.64,85.85 -3.59,0 -7.23,-0.22 -10.9,-0.69 -204,-25.75 -674.9,-84.66 -858.46,-107.61 -42.95,-5.38 -75.17,-41.89 -75.17,-85.18 v -234.76 l -514.23,-66.3 c 3.58,11.22 7.17,22.4 10.8,33.69 l 353.98,52.65 c 54.46,8.1 94.77,54.86 94.77,109.93 v 284.07 c 0,53.49 -37.48,97.28 -86.42,108.41 140.11,80.79 314.08,122.2 498.17,122.2 448.95,0 958.08,-246.33 1182.56,-768.15 222.09,-516.26 -51.25,-696.7 51.25,-1448.39 59.52,-436.5 -82.03,-827.15 -547.72,-1092.941" /></g></g><path
           inkscape:connector-curvature="0"
           id="path34"
           style="fill:#c8c5fb;fill-opacity:1;fill-rule:nonzero;stroke:none"
           d="m 3711.9,585.781 -264.07,94.11 c 157.11,49.328 292.48,107.55 407.9,173.418 L 4166.2,745.871 3711.9,585.781" /><g
           id="g38"
           clip-path="url(#clipPath42)"><path
             d="M 2889.73,622.191 2510.47,792.34 2210.94,755.332 1444.61,975.41 3012.52,1278.08 v -110.41 l 67.7,-19.25 64.2,8.59 v 143.09 l 857.22,-324.42 -301.62,-68.481 155.71,-53.89 C 3740.31,787.441 3604.94,729.219 3447.83,679.891 L 3305.2,730.719 2889.73,622.191"
             style="fill:url(#linearGradient50);fill-opacity:1;fill-rule:nonzero;stroke:none"
             id="path52"
             inkscape:connector-curvature="0" /></g><path
           inkscape:connector-curvature="0"
           id="path54"
           style="fill:#aec4ff;fill-opacity:1;fill-rule:nonzero;stroke:none"
           d="m 2275.14,763.922 -64.2,-8.59 V 2123.23 l 64.2,8.6 V 763.922" /><path
           inkscape:connector-curvature="0"
           id="path56"
           style="fill:#152274;fill-opacity:1;fill-rule:nonzero;stroke:none"
           d="m 2143.24,774.582 67.7,-19.25 V 2123.23 l -67.7,19.26 V 774.582" /><path
           inkscape:connector-curvature="0"
           id="path58"
           style="fill:#aec4ff;fill-opacity:1;fill-rule:nonzero;stroke:none"
           d="m 1576.5,964.75 -64.2,-8.59 v 1367.9 l 64.2,8.6 V 964.75" /><path
           inkscape:connector-curvature="0"
           id="path60"
           style="fill:#152274;fill-opacity:1;fill-rule:nonzero;stroke:none"
           d="m 1444.61,975.41 67.69,-19.25 v 1367.9 l -67.69,19.25 V 975.41" /><path
           inkscape:connector-curvature="0"
           id="path62"
           style="fill:#7990cf;fill-opacity:1;fill-rule:nonzero;stroke:none"
           d="m 3144.42,1157.01 -64.2,-8.59 v 1367.9 l 64.2,8.59 v -1367.9" /><path
           inkscape:connector-curvature="0"
           id="path64"
           style="fill:#152274;fill-opacity:1;fill-rule:nonzero;stroke:none"
           d="m 3012.52,1167.67 67.7,-19.25 v 1367.9 l -67.7,19.26 V 1167.67" /><path
           inkscape:connector-curvature="0"
           id="path66"
           style="fill:#7990cf;fill-opacity:1;fill-rule:nonzero;stroke:none"
           d="m 4065.85,984.281 -64.21,-8.601 v 1367.9 l 64.21,8.6 V 984.281" /><path
           inkscape:connector-curvature="0"
           id="path68"
           style="fill:#152274;fill-opacity:1;fill-rule:nonzero;stroke:none"
           d="m 3933.95,994.93 67.69,-19.25 v 1367.9 l -67.69,19.26 V 994.93" /><path
           inkscape:connector-curvature="0"
           id="path70"
           style="fill:#aec4ff;fill-opacity:1;fill-rule:nonzero;stroke:none"
           d="m 2210.94,2123.23 1854.91,248.06 v -73.12 L 2210.94,2040.93 v 82.3" /><path
           inkscape:connector-curvature="0"
           id="path72"
           style="fill:#e7ddfb;fill-opacity:1;fill-rule:nonzero;stroke:none"
           d="m 4065.85,2371.29 -985.67,172.41 -1635.57,-200.39 766.33,-220.08 1854.91,248.06" /><path
           inkscape:connector-curvature="0"
           id="path74"
           style="fill:#152274;fill-opacity:1;fill-rule:nonzero;stroke:none"
           d="m 1444.61,2343.31 766.33,-220.08 v -82.3 l -766.33,224.74 v 77.64" /><path
           inkscape:connector-curvature="0"
           id="path76"
           style="fill:#90abf5;fill-opacity:1;fill-rule:nonzero;stroke:none"
           d="m 2630.95,2264.69 494.38,66.11 v -19.48 l -494.38,-68.57 v 21.94" /><path
           inkscape:connector-curvature="0"
           id="path78"
           style="fill:#eae8ff;fill-opacity:1;fill-rule:nonzero;stroke:none"
           d="m 3125.33,2330.8 -248.83,60.23 -449.8,-67.68 204.25,-58.66 494.38,66.11" /><path
           inkscape:connector-curvature="0"
           id="path80"
           style="fill:#152274;fill-opacity:1;fill-rule:nonzero;stroke:none"
           d="m 2426.7,2323.35 204.25,-58.66 v -21.94 l -204.25,59.91 v 20.69" /><path
           inkscape:connector-curvature="0"
           id="path82"
           style="fill:#4fb8bc;fill-opacity:1;fill-rule:nonzero;stroke:none"
           d="m 2866.05,3525.03 c -12.2,-2.16 -1124.21,-144.93 -1124.21,-144.93 v -907.04 l 1104.19,177.53 20.02,874.44" /><path
           inkscape:connector-curvature="0"
           id="path84"
           style="fill:#90abf5;fill-opacity:1;fill-rule:nonzero;stroke:none"
           d="m 2918.38,3511.02 c -12.21,-2.16 -1134.83,-142.49 -1134.83,-142.49 v -907.04 l 1134.83,168.8 v 880.73" /><path
           inkscape:connector-curvature="0"
           id="path86"
           style="fill:#152274;fill-opacity:1;fill-rule:nonzero;stroke:none"
           d="m 2918.38,3511.02 c -12.21,-2.16 -1134.83,-142.49 -1134.83,-142.49 v -781.87 l 1134.83,168.8 v 755.56" /><path
           inkscape:connector-curvature="0"
           id="path88"
           style="fill:#ebe1ff;fill-opacity:1;fill-rule:nonzero;stroke:none"
           d="m 2866.05,3462.63 c -11.07,-1.97 -1030.17,-129.35 -1030.17,-129.35 v -683.21 l 1030.17,153.23 v 659.33" /><path
           inkscape:connector-curvature="0"
           id="path90"
           style="fill:#101b59;fill-opacity:1;fill-rule:nonzero;stroke:none"
           d="m 1783.55,2461.49 -41.71,11.57 v 907.04 l 41.71,-11.57 v -907.04" /><path
           inkscape:connector-curvature="0"
           id="path92"
           style="fill:#d6d2f5;fill-opacity:1;fill-rule:nonzero;stroke:none"
           d="m 1741.84,3380.1 41.71,-11.57 1134.83,142.49 -52.33,14.01 -1124.21,-144.93" /><path
           inkscape:connector-curvature="0"
           id="path94"
           style="fill:#90abf5;fill-opacity:1;fill-rule:nonzero;stroke:none"
           d="m 2547.44,2457.49 v 117.62 l -292.26,-43.47 v -128.41 l 146.37,-40.39 300.28,50.4 -154.39,44.25" /><path
           inkscape:connector-curvature="0"
           id="path96"
           style="fill:#101b59;fill-opacity:1;fill-rule:nonzero;stroke:none"
           d="m 2255.18,2531.64 v -57.72 l 292.26,44.89 v 56.3 l -292.26,-43.47" /><path
           inkscape:connector-curvature="0"
           id="path98"
           style="fill:#101b59;fill-opacity:1;fill-rule:nonzero;stroke:none"
           d="m 2255.18,2403.23 146.37,-40.39 300.28,50.4 v -14 l -300.52,-50.7 -146.13,41.82 v 12.87" /><path
           inkscape:connector-curvature="0"
           id="path100"
           style="fill:#f1f1f1;fill-opacity:1;fill-rule:nonzero;stroke:none"
           d="m 1978.9,3290.05 c 202.15,25.28 537.83,67.29 724.1,90.77 48.02,6.05 90.41,-31.39 90.41,-79.78 v -378.56 c 0,-39.84 -29.17,-73.67 -68.58,-79.53 l -724.07,-107.7 c -48.58,-7.23 -92.23,30.41 -92.23,79.53 v 395.49 c 0,40.56 30.13,74.75 70.37,79.78" /><path
           inkscape:connector-curvature="0"
           id="path102"
           style="fill:#6176f9;fill-opacity:1;fill-rule:nonzero;stroke:none"
           d="m 1908.53,3187.34 884.61,118.5 c -2.71,46.03 -43.74,80.83 -90.14,74.98 -186.27,-23.48 -521.95,-65.49 -724.1,-90.77 -40.24,-5.03 -70.37,-39.22 -70.37,-79.77 v -22.94" /><path
           inkscape:connector-curvature="0"
           id="path104"
           style="fill:#5062cf;fill-opacity:1;fill-rule:nonzero;stroke:none"
           d="m 1974.19,3234.97 c -0.46,5.09 3.28,9.59 8.37,10.04 5.09,0.46 9.58,-3.28 10.04,-8.36 0.47,-5.09 -3.28,-9.59 -8.37,-10.05 -5.09,-0.46 -9.58,3.29 -10.04,8.37" /><path
           inkscape:connector-curvature="0"
           id="path106"
           style="fill:#d6d2f5;fill-opacity:1;fill-rule:nonzero;stroke:none"
           d="m 2002.26,3239.87 c -0.46,5.08 3.28,9.58 8.37,10.04 5.08,0.46 9.58,-3.29 10.03,-8.37 0.47,-5.08 -3.28,-9.58 -8.37,-10.05 -5.07,-0.45 -9.58,3.29 -10.03,8.38" /><path
           inkscape:connector-curvature="0"
           id="path108"
           style="fill:#d6d2f5;fill-opacity:1;fill-rule:nonzero;stroke:none"
           d="m 2031.9,3244.89 c -0.45,5.09 3.29,9.58 8.37,10.04 5.09,0.47 9.58,-3.28 10.04,-8.37 0.47,-5.09 -3.28,-9.58 -8.37,-10.04 -5.07,-0.46 -9.58,3.28 -10.04,8.37" /><path
           inkscape:connector-curvature="0"
           id="path110"
           style="fill:#9eb3f6;fill-opacity:1;fill-rule:nonzero;stroke:none"
           d="m 2078.14,3452.4 c -60.19,0.01 -110.91,48.91 -110.91,111.15 v 297.4 c 0,56.04 41.68,103.31 97.28,110.26 143.21,17.92 410.79,51.4 568.41,71.24 4.74,0.59 9.44,0.88 14.08,0.88 8.38,0 16.57,-0.94 24.47,-2.74 -130.37,-75.17 -231.34,-184.41 -283.92,-326.15 -28.72,-77.43 -54.26,-153.96 -78.41,-228.91 l -214.43,-31.9 c -5.58,-0.83 -11.11,-1.23 -16.57,-1.23" /><g
           id="g114"
           clip-path="url(#clipPath118)"><path
             d="m 2309.14,3485.53 c 24.15,74.95 49.69,151.48 78.41,228.91 52.58,141.74 153.55,250.98 283.92,326.15 48.94,-11.13 86.42,-54.92 86.42,-108.41 v -284.07 c 0,-55.07 -40.31,-101.83 -94.77,-109.93 l -353.98,-52.65"
             style="fill:url(#linearGradient126);fill-opacity:1;fill-rule:nonzero;stroke:none"
             id="path128"
             inkscape:connector-curvature="0" /></g><path
           inkscape:connector-curvature="0"
           id="path130"
           style="fill:#e7ddfb;fill-opacity:1;fill-rule:nonzero;stroke:none"
           d="m 2097.6,3813.29 539.05,67.56 c 16.44,2.06 28.1,17.06 26.04,33.5 -2.06,16.44 -17.06,28.1 -33.5,26.04 l -539.05,-67.57 c -16.44,-2.06 -28.1,-17.05 -26.04,-33.49 2.06,-16.44 17.06,-28.1 33.5,-26.04" /><path
           inkscape:connector-curvature="0"
           id="path132"
           style="fill:#e7ddfb;fill-opacity:1;fill-rule:nonzero;stroke:none"
           d="m 2097.6,3684.32 539.05,67.56 c 16.44,2.06 28.1,17.06 26.04,33.5 -2.06,16.44 -17.06,28.1 -33.5,26.04 l -539.05,-67.57 c -16.44,-2.06 -28.1,-17.05 -26.04,-33.49 2.06,-16.44 17.06,-28.1 33.5,-26.04" /><path
           inkscape:connector-curvature="0"
           id="path134"
           style="fill:#e7ddfb;fill-opacity:1;fill-rule:nonzero;stroke:none"
           d="m 2097.6,3555.35 539.05,67.56 c 16.44,2.06 28.1,17.06 26.04,33.5 -2.06,16.44 -17.06,28.09 -33.5,26.03 l -539.05,-67.56 c -16.44,-2.06 -28.1,-17.06 -26.04,-33.5 2.06,-16.44 17.06,-28.1 33.5,-26.03" /><g
           id="g138"
           clip-path="url(#clipPath142)"><path
             d="m 2918.38,3161.2 v 90.13 l 548.46,80.44 v 463.26 c -7.79,-1.38 -573.99,-67.4 -573.99,-67.4 v -209.77 l -26.8,7.17 v 0 l -53.48,-6.89 v 234.76 c 0,43.29 32.22,79.8 75.17,85.18 183.56,22.95 654.46,81.86 858.46,107.61 3.67,0.47 7.31,0.69 10.9,0.69 46.61,0 85.64,-37.88 85.64,-85.85 v -487.82 c 0,-42.53 -31.14,-78.65 -73.2,-84.9 l -240.25,-35.74 c -30.55,24.03 -69.42,42.32 -120.67,50.68 -13.36,2.18 -26.3,3.21 -38.82,3.21 -83.95,0 -148.34,-46.47 -186.2,-105.31 l -265.22,-39.45 m -52.8,343.01 v 0.18 l 27.27,3.43 v -0.14 c -7.57,-0.97 -16.72,-2.13 -27.27,-3.47"
             style="fill:url(#linearGradient150);fill-opacity:1;fill-rule:nonzero;stroke:none"
             id="path152"
             inkscape:connector-curvature="0" /></g><path
           inkscape:connector-curvature="0"
           id="path154"
           style="fill:#80aee7;fill-opacity:1;fill-rule:nonzero;stroke:none"
           d="m 2812.57,3497.5 v 0.23 l 53.01,6.66 v -0.18 c -14.99,-1.9 -32.79,-4.15 -53.01,-6.71" /><path
           inkscape:connector-curvature="0"
           id="path156"
           style="fill:#738ad6;fill-opacity:1;fill-rule:nonzero;stroke:none"
           d="m 2898.24,3159.16 c -11.32,0 -22.2,2.23 -32.19,6.31 v 297.16 c -1.47,-0.26 -20.9,-2.76 -53.48,-6.89 v 41.76 c 34.46,4.35 61.94,7.84 80.28,10.18 v -260.1 l 25.53,3.75 v -90.13 l -7.35,-1.09 c -4.31,-0.64 -8.58,-0.95 -12.79,-0.95" /><path
           inkscape:connector-curvature="0"
           id="path158"
           style="fill:#a6b8f7;fill-opacity:1;fill-rule:nonzero;stroke:none"
           d="m 2866.05,3165.47 c -31.05,12.69 -53.48,43.17 -53.48,79.54 v 210.73 c 32.58,4.13 52.01,6.63 53.48,6.89 v -297.16" /><path
           inkscape:connector-curvature="0"
           id="path160"
           style="fill:#a1b4f5;fill-opacity:1;fill-rule:nonzero;stroke:none"
           d="m 2812.57,3497.73 v 20.41 l 53.48,6.89 26.8,-7.17 v -10.04 l -27.27,-3.43 -53.01,-6.66" /><path
           inkscape:connector-curvature="0"
           id="path162"
           style="fill:#e7ddfb;fill-opacity:1;fill-rule:nonzero;stroke:none"
           d="m 3466.84,3795.03 c -7.79,-1.38 -573.99,-67.4 -573.99,-67.4 v -480.05 l 573.99,84.19 v 463.26" /><path
           inkscape:connector-curvature="0"
           id="path164"
           style="fill:#e7ddfb;fill-opacity:1;fill-rule:nonzero;stroke:none"
           d="m 3496.04,3332.78 275.43,40.69 v 218.05 c -137.72,-16.23 -275.43,-32.4 -275.43,-32.4 v -226.34" /><path
           inkscape:connector-curvature="0"
           id="path166"
           style="fill:#e7ddfb;fill-opacity:1;fill-rule:nonzero;stroke:none"
           d="m 3496.04,3796.78 v -221.42 c 0,0 137.71,16.17 275.43,32.41 v 221.41 c -137.72,-16.23 -275.43,-32.4 -275.43,-32.4" /><path
           inkscape:connector-curvature="0"
           id="path168"
           style="fill:#6176f9;fill-opacity:1;fill-rule:nonzero;stroke:none"
           d="m 3551.67,3784.08 c 6.26,0.74 12.9,1.52 19.88,2.34 l -0.3,2.48 c -6.97,-0.82 -13.61,-1.6 -19.87,-2.33 z m 39.75,4.68 c 6.41,0.75 13.04,1.53 19.87,2.33 l -0.3,2.49 c -6.82,-0.81 -13.45,-1.59 -19.87,-2.34 z m 39.74,4.67 c 6.49,0.76 13.12,1.54 19.87,2.34 l -0.3,2.48 c -6.74,-0.79 -13.37,-1.57 -19.87,-2.34 z m 39.74,4.68 c 6.54,0.77 13.16,1.55 19.86,2.34 l -0.29,2.48 c -6.7,-0.79 -13.33,-1.57 -19.87,-2.34 z m 39.73,4.67 c 6.58,0.78 13.2,1.56 19.87,2.34 l -0.29,2.49 c -6.67,-0.79 -13.3,-1.57 -19.87,-2.34 z m 39.74,4.68 c 1.83,0.22 3.67,0.44 5.51,0.65 l -0.15,1.25 h -1.25 v -14.45 h 2.5 v 15.85 l -1.39,-0.16 c -1.84,-0.22 -3.68,-0.44 -5.52,-0.65 z m 4.11,-52.55 h 2.5 v 20 h -2.5 z m 0,-40 h 2.5 v 20 h -2.5 z m 0,-40 h 2.5 v 20 h -2.5 z m 0,-40 h 2.5 v 20 h -2.5 z m -7.83,-10.83 c -6.65,-0.79 -13.28,-1.57 -19.87,-2.34 l 0.29,-2.49 c 6.6,0.78 13.22,1.56 19.87,2.34 z m -39.74,-4.68 c -6.68,-0.79 -13.3,-1.57 -19.87,-2.34 l 0.3,-2.49 c 6.56,0.78 13.19,1.56 19.86,2.34 z m -39.73,-4.68 c -6.72,-0.79 -13.35,-1.57 -19.87,-2.34 l 0.29,-2.48 c 6.52,0.76 13.15,1.54 19.87,2.34 z m -39.74,-4.68 c -6.78,-0.79 -13.41,-1.57 -19.87,-2.33 l 0.29,-2.49 c 6.46,0.76 13.09,1.54 19.87,2.34 z m -39.74,-4.67 c -6.87,-0.81 -13.51,-1.59 -19.87,-2.34 l 0.29,-2.48 c 6.36,0.75 13,1.53 19.87,2.34 z m -39.74,-4.67 c -7.11,-0.84 -13.76,-1.62 -19.88,-2.34 l 0.29,-2.48 c 6.13,0.72 12.77,1.5 19.88,2.33 l -0.3,2.49 z m -34.93,17.93 h -2.5 v -20 h 2.5 z m 0,40 h -2.5 v -20 h 2.5 z m 0,40 h -2.5 v -20 h 2.5 z m 0,40 h -2.5 v -20 h 2.5 z m 0,40 h -2.5 v -20 h 2.5 z m -1.11,0.78 c 5.71,0.67 12.38,1.45 19.88,2.34 l -0.29,2.48 c -7.51,-0.88 -14.17,-1.67 -19.88,-2.34 l 0.29,-2.48" /><path
           inkscape:connector-curvature="0"
           id="path170"
           style="fill:#6176f9;fill-opacity:1;fill-rule:nonzero;stroke:none"
           d="m 3586.41,3514.55 v -117.79 l 127.18,75.14 z" /><path
           inkscape:connector-curvature="0"
           id="path172"
           style="fill:#6176f9;fill-opacity:1;fill-rule:nonzero;stroke:none"
           d="m 2951.79,3449.34 c -4.7,0 -8.78,3.5 -9.38,8.29 -0.65,5.18 3.03,9.91 8.22,10.56 l 209.37,26.25 c 5.17,0.65 9.92,-3.03 10.57,-8.22 0.65,-5.18 -3.03,-9.92 -8.22,-10.57 l -209.37,-26.24 -1.19,-0.07" /><path
           inkscape:connector-curvature="0"
           id="path174"
           style="fill:#6176f9;fill-opacity:1;fill-rule:nonzero;stroke:none"
           d="m 2951.79,3399.24 c -4.7,0 -8.78,3.5 -9.38,8.29 -0.65,5.18 3.03,9.92 8.22,10.57 l 209.37,26.24 c 5.17,0.66 9.92,-3.02 10.57,-8.21 0.65,-5.19 -3.03,-9.92 -8.22,-10.57 l -209.37,-26.25 -1.19,-0.07" /><path
           inkscape:connector-curvature="0"
           id="path176"
           style="fill:#6176f9;fill-opacity:1;fill-rule:nonzero;stroke:none"
           d="m 2951.79,3349.14 c -4.7,0 -8.78,3.51 -9.38,8.29 -0.65,5.19 3.03,9.92 8.22,10.57 l 209.37,26.24 c 5.17,0.66 9.92,-3.02 10.57,-8.21 0.65,-5.19 -3.03,-9.92 -8.22,-10.57 l -209.37,-26.24 -1.19,-0.08" /><path
           inkscape:connector-curvature="0"
           id="path178"
           style="fill:#6176f9;fill-opacity:1;fill-rule:nonzero;stroke:none"
           d="m 2951.79,3599.62 c -4.7,0 -8.78,3.5 -9.38,8.3 -0.65,5.18 3.03,9.91 8.22,10.56 l 209.37,26.25 c 5.17,0.65 9.92,-3.03 10.57,-8.22 0.65,-5.19 -3.03,-9.92 -8.22,-10.57 l -209.37,-26.24 -1.19,-0.08" /><path
           inkscape:connector-curvature="0"
           id="path180"
           style="fill:#6176f9;fill-opacity:1;fill-rule:nonzero;stroke:none"
           d="m 2951.79,3549.53 c -4.7,0 -8.78,3.5 -9.38,8.29 -0.65,5.18 3.03,9.91 8.22,10.56 l 209.37,26.25 c 5.17,0.65 9.92,-3.02 10.57,-8.22 0.65,-5.18 -3.03,-9.92 -8.22,-10.57 l -209.37,-26.24 -1.19,-0.07" /><path
           inkscape:connector-curvature="0"
           id="path182"
           style="fill:#6176f9;fill-opacity:1;fill-rule:nonzero;stroke:none"
           d="m 2951.79,3499.43 c -4.7,0 -8.78,3.5 -9.38,8.29 -0.65,5.19 3.03,9.92 8.22,10.57 l 209.37,26.24 c 5.17,0.66 9.92,-3.02 10.57,-8.21 0.65,-5.19 -3.03,-9.92 -8.22,-10.57 l -209.37,-26.24 -1.19,-0.08" /><path
           inkscape:connector-curvature="0"
           id="path184"
           style="fill:#6176f9;fill-opacity:1;fill-rule:nonzero;stroke:none"
           d="m 3198.5,3479.39 c -4.7,0 -8.78,3.51 -9.38,8.29 -0.65,5.19 3.03,9.92 8.21,10.57 l 209.38,26.24 c 5.17,0.66 9.92,-3.02 10.58,-8.21 0.64,-5.19 -3.04,-9.92 -8.23,-10.57 l -209.37,-26.24 -1.19,-0.08" /><path
           inkscape:connector-curvature="0"
           id="path186"
           style="fill:#6176f9;fill-opacity:1;fill-rule:nonzero;stroke:none"
           d="m 3198.5,3429.29 c -4.7,0 -8.78,3.51 -9.38,8.29 -0.65,5.19 3.03,9.92 8.21,10.57 l 209.38,26.25 c 5.17,0.65 9.92,-3.03 10.58,-8.22 0.64,-5.18 -3.04,-9.92 -8.23,-10.56 l -209.37,-26.25 -1.19,-0.08" /><path
           inkscape:connector-curvature="0"
           id="path188"
           style="fill:#6176f9;fill-opacity:1;fill-rule:nonzero;stroke:none"
           d="m 3198.5,3379.2 c -4.7,0 -8.78,3.5 -9.38,8.29 -0.65,5.19 3.03,9.92 8.21,10.57 l 209.38,26.24 c 5.17,0.66 9.92,-3.02 10.58,-8.21 0.64,-5.19 -3.04,-9.92 -8.23,-10.57 l -209.37,-26.25 -1.19,-0.07" /><path
           inkscape:connector-curvature="0"
           id="path190"
           style="fill:#6176f9;fill-opacity:1;fill-rule:nonzero;stroke:none"
           d="m 3198.5,3629.68 c -4.7,0 -8.78,3.5 -9.38,8.29 -0.65,5.19 3.03,9.92 8.21,10.57 l 209.38,26.24 c 5.17,0.65 9.92,-3.02 10.58,-8.21 0.64,-5.19 -3.04,-9.92 -8.23,-10.57 l -209.37,-26.24 -1.19,-0.08" /><path
           inkscape:connector-curvature="0"
           id="path192"
           style="fill:#6176f9;fill-opacity:1;fill-rule:nonzero;stroke:none"
           d="m 3198.5,3579.58 c -4.7,0 -8.78,3.51 -9.38,8.29 -0.65,5.19 3.03,9.92 8.21,10.57 l 209.38,26.25 c 5.17,0.65 9.92,-3.03 10.58,-8.22 0.64,-5.19 -3.04,-9.92 -8.23,-10.57 l -209.37,-26.24 -1.19,-0.08" /><path
           inkscape:connector-curvature="0"
           id="path194"
           style="fill:#6176f9;fill-opacity:1;fill-rule:nonzero;stroke:none"
           d="m 3198.5,3529.49 c -4.7,0 -8.78,3.5 -9.38,8.29 -0.65,5.18 3.03,9.92 8.21,10.56 l 209.38,26.25 c 5.17,0.66 9.92,-3.02 10.58,-8.21 0.64,-5.19 -3.04,-9.92 -8.23,-10.57 l -209.37,-26.25 -1.19,-0.07" /><path
           inkscape:connector-curvature="0"
           id="path196"
           style="fill:#a4b7f6;fill-opacity:1;fill-rule:nonzero;stroke:none"
           d="m 1144.37,2962.55 v 521.95 c 0,0 701.07,80.02 709.53,81.53 v -171.48 l -112.06,-14.45 v 0 -333.53 l -597.47,-84.02" /><path
           inkscape:connector-curvature="0"
           id="path198"
           style="fill:#81aee8;fill-opacity:1;fill-rule:nonzero;stroke:none"
           d="m 1741.84,3046.57 v 333.53 c 0,0 0,0 0.02,0 h -0.02 v -333.53 m 41.71,321.96 v 0 c 0.02,0 0.02,0 0.02,0 m -0.02,0 70.35,8.83 v -0.04 c -43.58,-5.44 -69.55,-8.69 -70.33,-8.79" /><path
           inkscape:connector-curvature="0"
           id="path200"
           style="fill:#748bd7;fill-opacity:1;fill-rule:nonzero;stroke:none"
           d="m 1783.55,3052.43 v 316.1 c 0.02,0 0.02,0 0.02,0 h -0.02 c 0.8,0.1 26.77,3.35 70.35,8.79 v -41.79 c -11.68,-1.46 -18.02,-2.25 -18.02,-2.25 v -273.49 l -52.33,-7.36" /><path
           inkscape:connector-curvature="0"
           id="path202"
           style="fill:#a5b7f7;fill-opacity:1;fill-rule:nonzero;stroke:none"
           d="m 1835.88,3059.79 v 273.49 c 0,0 6.34,0.79 18.02,2.25 v -273.21 l -18.02,-2.53" /><path
           inkscape:connector-curvature="0"
           id="path204"
           style="fill:#728ad1;fill-opacity:1;fill-rule:nonzero;stroke:none"
           d="m 1741.84,3046.57 v 333.53 l 41.71,-11.57 v -316.1 l -41.71,-5.86" /><path
           inkscape:connector-curvature="0"
           id="path206"
           style="fill:#a0b4f5;fill-opacity:1;fill-rule:nonzero;stroke:none"
           d="m 1783.55,3368.53 v 0 l -41.71,11.57 112.06,14.45 v -17.19 l -70.35,-8.83" /><path
           inkscape:connector-curvature="0"
           id="path208"
           style="fill:#e7ddfb;fill-opacity:1;fill-rule:nonzero;stroke:none"
           d="m 2329.24,3187.34 c -4.08,-0.72 -342.34,-46.41 -342.34,-46.41 V 2889.1 l 342.34,48.14 v 250.1" /><path
           inkscape:connector-curvature="0"
           id="path210"
           style="fill:#e7ddfb;fill-opacity:1;fill-rule:nonzero;stroke:none"
           d="m 2719.88,2956.09 c -4.08,-0.72 -732.98,-97.97 -732.98,-97.97 v -54.47 l 732.98,99.69 v 52.75" /><path
           inkscape:connector-curvature="0"
           id="path212"
           style="fill:#e7ddfb;fill-opacity:1;fill-rule:nonzero;stroke:none"
           d="m 2719.88,3234.97 c -4.08,-0.72 -342.32,-39.33 -342.32,-39.33 v -251.83 l 342.32,48.14 v 243.02" /><path
           inkscape:connector-curvature="0"
           id="path214"
           style="fill:#152274;fill-opacity:1;fill-rule:nonzero;stroke:none"
           d="m 1651.28,3418.12 c -18.51,-1.93 -41.97,-4.37 -67.75,-7.04 v 63.29 c -2.29,-0.4 -162.61,-16.86 -162.61,-16.86 v -63.21 c -21.98,-2.26 -41.59,-4.28 -56.88,-5.85 -19.14,-1.97 -33.67,-18.09 -33.67,-37.33 v -240.81 c 0,-22.71 20.01,-40.22 42.52,-37.19 l 287.28,38.59 c 18.63,2.51 32.53,18.4 32.53,37.2 v 231.89 c 0,22.27 -19.27,39.64 -41.42,37.32" /><path
           inkscape:connector-curvature="0"
           id="path216"
           style="fill:#d7e4e5;fill-opacity:1;fill-rule:nonzero;stroke:none"
           d="m 1539.82,3443.45 c -1.05,-0.14 -75.22,-6.08 -75.22,-6.08 l 0.02,-30.71 75.23,7.86 -0.03,28.93" /><path
           inkscape:connector-curvature="0"
           id="path218"
           style="fill:#d7e4e5;fill-opacity:1;fill-rule:nonzero;stroke:none"
           d="m 1451.13,3245.56 c 0,33.36 27.04,60.4 60.4,60.4 33.36,0 60.4,-27.04 60.4,-60.4 0,-33.36 -27.04,-60.41 -60.4,-60.41 -33.36,0 -60.4,27.05 -60.4,60.41" /><path
           inkscape:connector-curvature="0"
           id="path220"
           style="fill:#6176f9;fill-opacity:1;fill-rule:nonzero;stroke:none"
           d="m 1538.6,2998.16 h 2.5 v 20 h -2.5 z m 0,-40 h 2.5 v 20 h -2.5 z m 8.41,-13.01 19.72,3.34 -0.42,2.46 -19.72,-3.33 z m 39.44,6.67 19.72,3.34 -0.42,2.47 -19.72,-3.34 z m 39.44,6.68 19.72,3.33 -0.42,2.47 -19.72,-3.34 z m 39.44,6.67 19.72,3.33 -0.42,2.47 -19.72,-3.34 z m 39.44,6.67 19.72,3.34 -0.42,2.46 -19.72,-3.33 z m 39.44,6.67 19.72,3.34 -0.42,2.46 -19.72,-3.33 z m 39.44,6.67 19.72,3.34 -0.42,2.46 -19.72,-3.33 z m 39.44,6.68 19.72,3.33 -0.42,2.47 -19.72,-3.34 z m 39.44,6.67 19.72,3.33 -0.42,2.47 -19.72,-3.34 z m 39.44,6.67 19.72,3.34 -0.42,2.46 -19.72,-3.34 z m 39.44,6.67 19.72,3.34 -0.42,2.46 -19.72,-3.33 z m 39.44,6.67 19.72,3.34 -0.42,2.46 -19.72,-3.33" /><path
           inkscape:connector-curvature="0"
           id="path222"
           style="fill:#6176f9;fill-opacity:1;fill-rule:nonzero;stroke:none"
           d="m 2400.06,3479.24 h 2.5 v 20 h -2.5 z m 0,-40 h 2.5 v 20 h -2.5 z m 0,-40 h 2.5 v 20 h -2.5 z m 0,-40 h 2.5 v 20 h -2.5 z m 0,-40 h 2.5 v 20 h -2.5 z m 0,-40 h 2.5 v 20 h -2.5 z m 0,-40 h 2.5 v 20 h -2.5 z m 0,-40 h 2.5 v 20 h -2.5 z m 0,-40 h 2.5 v 20 h -2.5 z m 0,-40 h 2.5 v 20 h -2.5 z" /><path
           inkscape:connector-curvature="0"
           id="path224"
           style="fill:#6176f9;fill-opacity:1;fill-rule:nonzero;stroke:none"
           d="m 3045.12,3170.05 h 2.5 v 20 h -2.5 z m 0,-40 h 2.5 v 20 h -2.5 z m 0,-40 h 2.5 v 20 h -2.5 z m -11.67,-7.94 -19.75,-3.19 0.4,-2.47 19.75,3.2 z m -39.49,-6.39 -19.74,-3.19 0.4,-2.47 19.74,3.2 z m -39.49,-6.39 -19.74,-3.19 0.4,-2.47 19.74,3.2 z m -39.48,-6.39 -19.74,-3.19 0.39,-2.47 19.75,3.2 z m -39.49,-6.39 -19.74,-3.19 0.4,-2.47 19.74,3.2 z m -39.48,-6.39 -19.75,-3.19 0.4,-2.47 19.75,3.2 z m -39.49,-6.39 -19.74,-3.19 0.4,-2.47 19.74,3.2 z m -39.49,-6.39 -19.74,-3.19 0.4,-2.47 19.74,3.19 z m -39.48,-6.39 -19.75,-3.19 0.4,-2.47 19.75,3.19 z m -39.49,-6.39 -18.12,-2.93 0.4,-2.47 18.12,2.93" /><path
           inkscape:connector-curvature="0"
           id="path226"
           style="fill:#fab28f;fill-opacity:1;fill-rule:nonzero;stroke:none"
           d="m 3623.48,2603.38 c -37.76,9.85 -64.27,-9.39 -64.27,-9.39 0,0 -69.24,-200.04 -80.04,-212.1 -6.18,-6.9 -79.68,-0.75 -146.54,5.4 -50.03,4.61 -96.34,9.21 -107.97,8.35 -44.33,-0.29 -152.15,6.64 -164.35,10.65 -12.18,4.01 -45.83,-3.59 -59.5,-9.68 -13.67,-6.1 -20.83,-37.7 -17.44,-46.02 3.38,-8.31 14.56,-1.17 15.03,3.39 5.05,-5.68 13.52,-6.57 16.15,-1.56 2.64,5 23.43,28.56 45.27,18.36 25.25,-11.78 40.41,-8.39 91.59,-19.69 18.09,-3.99 33.87,-7.63 46.69,-10.65 4.05,-1.3 16.84,-4.4 35.15,-8.55 l 0.75,-0.2 -0.01,0.02 c 76.81,-17.44 249.22,-53.37 291.73,-56.14 52.87,-3.45 166,264.19 166,264.19 0,0 -30.5,53.77 -68.24,63.62" /><path
           inkscape:connector-curvature="0"
           id="path228"
           style="fill:#90abf5;fill-opacity:1;fill-rule:nonzero;stroke:none"
           d="m 3319.67,2410.71 c 14.69,-40.06 8.71,-104.15 57.76,-150.88 30.36,-80.11 51.73,-182.92 39.71,-229.65 57.41,-18.7 86.72,-21.37 86.72,-21.37 l 62.83,130.86 -123.52,293.74 -65.74,28.05 -57.76,-50.75" /><path
           inkscape:connector-curvature="0"
           id="path230"
           style="fill:#5e4fff;fill-opacity:1;fill-rule:nonzero;stroke:none"
           d="m 3268.93,2449.43 c 0,0 16.02,-114.82 138.86,-114.82 9.35,52.07 -98.81,142.86 -138.86,114.82" /><path
           inkscape:connector-curvature="0"
           id="path232"
           style="fill:#ffb591;fill-opacity:1;fill-rule:nonzero;stroke:none"
           d="m 3354.33,2472.3 c -35.93,15.2 -64.94,0 -64.94,0 0,0 -97.44,-187.94 -109.87,-198.31 -12.44,-10.37 -222.65,48.45 -249.84,50.39 -43.91,6.13 -149.6,28.57 -161.09,34.3 -11.48,5.73 -45.87,3.08 -60.28,-0.97 -14.4,-4.07 -26.05,-34.3 -23.91,-43.02 2.15,-8.72 14.24,-3.26 15.37,1.19 4.17,-6.36 12.43,-8.46 15.76,-3.89 3.33,4.57 27.3,24.88 47.45,11.62 23.27,-15.3 38.77,-14.14 87.77,-32.71 17.34,-6.57 32.41,-12.45 44.66,-17.3 3.82,-1.86 16.04,-6.77 33.55,-13.54 l 0.72,-0.3 v 0.02 c 73.47,-28.36 238.87,-88.83 280.54,-97.72 51.82,-11.06 202.44,237.42 202.44,237.42 0,0 -22.4,57.61 -58.33,72.82" /><path
           inkscape:connector-curvature="0"
           id="path234"
           style="fill:#6176f9;fill-opacity:1;fill-rule:nonzero;stroke:none"
           d="m 3572.02,2728.67 c 0,0 -9.95,-28.73 -88.43,-21.8 -73.12,4.27 -123.86,-15.76 -214.66,-257.44 58.76,-10.68 148.21,-78.78 138.86,-114.82 32.05,13.35 34.72,25.37 46.74,-12.02 12.01,-37.38 67.94,-228.32 49.33,-313.78 60.15,-6.67 268.44,-9.35 288.47,21.37 -26.7,112.15 28.05,315.11 45.4,409.91 17.36,94.8 5.35,205.16 -61.41,248.79 -66.77,43.62 -204.3,39.79 -204.3,39.79" /><path
           inkscape:connector-curvature="0"
           id="path236"
           style="fill:#ffb591;fill-opacity:1;fill-rule:nonzero;stroke:none"
           d="m 3168.77,3130.94 c -30.64,-51.09 4.62,-167.2 49.59,-201.79 44.97,-34.6 27.68,-79.57 23.06,-86.49 -4.61,-6.92 16.14,-17.29 40.36,-24.21 24.22,-6.92 77.25,-88.79 103.78,-72.65 26.52,16.14 76.1,78.41 84.18,101.48 8.06,23.06 40.35,223.7 -81.88,299.8 -122.23,76.1 -205.25,6.92 -219.09,-16.14" /><path
           inkscape:connector-curvature="0"
           id="path238"
           style="fill:#ffb591;fill-opacity:1;fill-rule:nonzero;stroke:none"
           d="m 3421.3,2808.07 c 0,0 69.37,-51.89 58.33,-107.24 60.44,-13.84 123.87,25.37 123.87,25.37 0,0 -107.53,207.67 -129.52,277.83 -21.98,70.15 -52.68,-195.96 -52.68,-195.96" /><path
           inkscape:connector-curvature="0"
           id="path240"
           style="fill:#c87137;fill-opacity:1;fill-rule:nonzero;stroke:none"
           d="m 3175.88,2992.17 c -87.81,90.84 20.57,345.17 232.74,310.58 212.17,-34.6 212.37,-239.51 287.12,-317.11 166.69,-173.03 224.78,-401.35 78.41,-396.66 -125.26,4.01 -170.65,-109.93 -170.65,-109.93 0,0 29.98,217.17 -115.32,325.56 -145.29,108.39 -217.94,205.25 -217.94,205.25 0,0 -54.97,-58.45 -94.36,-17.69" /><path
           inkscape:connector-curvature="0"
           id="path242"
           style="fill:#c87137;fill-opacity:1;fill-rule:nonzero;stroke:none"
           d="m 3199.53,3036.45 c 0,0 -16.15,-17.15 -37.22,-26.39 3.86,-6.47 8.34,-12.49 13.57,-17.9 21.01,-21.73 46.45,-15.25 65.62,-4.46 -27.98,30.09 -41.97,48.75 -41.97,48.75" /><path
           inkscape:connector-curvature="0"
           id="path244"
           style="fill:#c87137;fill-opacity:1;fill-rule:nonzero;stroke:none"
           d="m 3695.74,2985.64 c -72.44,75.19 -74.87,269.95 -268.03,313.41 124.4,-69.29 135.04,-222.18 197.31,-286.82 166.7,-173.03 192.26,-324.08 45.81,-325.13 -79.33,-0.56 -39.39,-136.11 -64.85,-152.85 7.83,-61.53 -2.48,-55.2 -2.48,-55.2 0,0 45.39,113.94 170.65,109.93 146.37,-4.69 88.28,223.63 -78.41,396.66" /><path
           inkscape:connector-curvature="0"
           id="path246"
           style="fill:#ffb591;fill-opacity:1;fill-rule:nonzero;stroke:none"
           d="m 3337.13,2922.23 c 0,0 2.3,47.27 28.83,26.52 26.51,-20.76 5.76,-64.58 5.76,-64.58 l -34.59,38.06" /><path
           inkscape:connector-curvature="0"
           id="path248"
           style="fill:#ffb591;fill-opacity:1;fill-rule:nonzero;stroke:none"
           d="m 3063.13,998.332 -9.34,-145.543 c 0,0 34.72,94.801 92.13,101.481 -4.01,26.71 0,44.062 0,44.062 h -82.79" /><path
           inkscape:connector-curvature="0"
           id="path250"
           style="fill:#121c61;fill-opacity:1;fill-rule:nonzero;stroke:none"
           d="m 3224.7,1636.56 -53.41,-654.259 c 0,0 -113.5,-20.02 -134.85,10.691 5.34,197.618 1.32,758.408 13.35,838.508 12.01,80.12 405.73,-22.69 405.73,-22.69 L 3224.7,1636.56" /><path
           inkscape:connector-curvature="0"
           id="path252"
           style="fill:#e5b6db;fill-opacity:1;fill-rule:nonzero;stroke:none"
           d="m 3145.92,954.27 c 24.83,-0.84 49.4,-37.391 56.75,-66.758 -29.38,-2.68 -139.54,-130.192 -166.23,-247.692 -15.37,30.719 -4.68,154.219 17.35,212.969 22.03,58.75 52.74,102.82 92.13,101.481" /><path
           inkscape:connector-curvature="0"
           id="path254"
           style="fill:#6176f9;fill-opacity:1;fill-rule:nonzero;stroke:none"
           d="m 3202.67,887.512 c 12.18,-22.543 -35.38,-92.133 -56.75,-140.211 -21.36,-48.059 -18.69,-110.821 -109.48,-107.481 5.67,36.141 63.3,239.711 166.23,247.692" /><path
           inkscape:connector-curvature="0"
           id="path256"
           style="fill:#ffb591;fill-opacity:1;fill-rule:nonzero;stroke:none"
           d="m 2916.44,980.691 -9.35,-145.531 c 0,0 34.72,94.801 92.13,101.469 -4.01,26.711 0,44.062 0,44.062 h -82.78" /><path
           inkscape:connector-curvature="0"
           id="path258"
           style="fill:#152274;fill-opacity:1;fill-rule:nonzero;stroke:none"
           d="m 3792.33,2030.18 c 58.75,-122.85 162.9,-478.01 -104.14,-498.04 -267.05,-20.03 -610.19,86.79 -610.19,86.79 l -53.41,-654.258 c 0,0 -113.5,-20.024 -134.86,10.68 5.34,197.618 1.33,758.408 13.36,838.518 12.01,80.11 276.38,88.12 443.29,41.39 17.35,64.1 70.76,174.92 70.76,174.92 h 375.19" /><path
           inkscape:connector-curvature="0"
           id="path260"
           style="fill:#e5b6db;fill-opacity:1;fill-rule:nonzero;stroke:none"
           d="m 2999.22,936.629 c 24.83,-0.84 49.4,-37.379 56.75,-66.758 -29.38,-2.672 -139.53,-130.18 -166.24,-247.68 -15.35,30.707 -4.67,154.219 17.36,212.969 22.03,58.75 52.73,102.809 92.13,101.469" /><path
           inkscape:connector-curvature="0"
           id="path262"
           style="fill:#6176f9;fill-opacity:1;fill-rule:nonzero;stroke:none"
           d="m 3055.97,869.871 c 12.17,-22.531 -35.39,-92.133 -56.75,-140.191 -21.37,-48.071 -18.69,-110.828 -109.49,-107.489 5.67,36.129 63.31,239.7 166.24,247.68" /><path
           inkscape:connector-curvature="0"
           id="path264"
           style="fill:#f3edfd;fill-opacity:1;fill-rule:nonzero;stroke:none"
           d="m 3179.55,2274.02 c 0.01,0 0.01,0.01 0.02,0.01 -0.01,0 -0.01,-0.01 -0.02,-0.01 m 0.03,0.03 c 0.01,0 0.02,0.01 0.02,0.01 0,0 -0.01,-0.01 -0.02,-0.01 m 0.04,0.02 c 0.01,0.02 0.02,0.03 0.03,0.04 -0.01,-0.01 -0.02,-0.02 -0.03,-0.04 m 0.04,0.04 c 0.01,0.01 0.02,0.02 0.02,0.03 0,-0.01 -0.01,-0.02 -0.02,-0.03 m 0.03,0.03 c 4.61,4.16 19.55,29.93 36.99,61.57 v 0 c -17.44,-31.65 -32.39,-57.41 -36.99,-61.57" /><path
           inkscape:connector-curvature="0"
           id="path266"
           style="fill:#f4f3ff;fill-opacity:1;fill-rule:nonzero;stroke:none"
           d="m 2768.59,2358.68 c -3.92,1.96 -10.51,2.94 -18.07,3.22 7.56,-0.28 14.15,-1.26 18.07,-3.22" /><path
           inkscape:connector-curvature="0"
           id="path268"
           style="fill:#f3edfd;fill-opacity:1;fill-rule:nonzero;stroke:none"
           d="m 3248.59,2394.75 v 0 c 8.38,15.74 16.29,30.72 22.86,43.23 v 0 c -6.57,-12.52 -14.48,-27.49 -22.86,-43.23 m 20.34,54.68 v 0 0 0" /><path
           inkscape:connector-curvature="0"
           id="path270"
           style="fill:#fcd5bf;fill-opacity:1;fill-rule:nonzero;stroke:none"
           d="m 3216.68,2335.71 v 0 c 10.31,18.71 21.48,39.46 31.91,59.04 v 0 c -10.43,-19.58 -21.6,-40.33 -31.91,-59.04" /><path
           inkscape:connector-curvature="0"
           id="path272"
           style="fill:#9b8eff;fill-opacity:1;fill-rule:nonzero;stroke:none"
           d="m 3271.45,2437.98 v 0 0.01 c -1.87,6.98 -2.51,11.37 -2.52,11.44 v 0 0 c 2.5,-0.45 5.06,-1.01 7.66,-1.66 -1.6,-3.06 -3.32,-6.33 -5.14,-9.79" /><path
           inkscape:connector-curvature="0"
           id="path274"
           style="fill:#ffd7c0;fill-opacity:1;fill-rule:nonzero;stroke:none"
           d="m 3193.65,2233.81 c -2.11,0 -4.26,0.28 -6.38,0.86 l -462.35,126.03 c 6.67,0.79 13.99,1.28 20.85,1.28 1.61,0 3.2,-0.03 4.75,-0.08 7.56,-0.28 14.15,-1.26 18.07,-3.22 v 0 c 11.49,-5.73 117.18,-28.17 161.09,-34.3 24.99,-1.78 204.59,-51.61 243.14,-51.61 3.39,0 5.7,0.39 6.7,1.22 0.01,0.01 0.02,0.02 0.03,0.03 0.01,0 0.01,0.01 0.02,0.01 0,0.01 0.01,0.01 0.01,0.02 0.01,0 0.02,0.01 0.02,0.01 0.01,0.01 0.01,0.01 0.02,0.01 0.01,0.02 0.02,0.03 0.03,0.04 h 0.01 c 0.01,0.01 0.02,0.02 0.02,0.03 h 0.01 c 4.6,4.16 19.55,29.92 36.99,61.57 10.31,18.71 21.48,39.46 31.91,59.04 8.38,15.74 16.29,30.71 22.86,43.23 1.82,3.46 3.54,6.73 5.14,9.79 6.92,-1.75 14.17,-4.18 21.55,-7.17 -35.41,-80.49 -67.59,-157.05 -82.12,-191.89 -3.85,-9.2 -12.79,-14.9 -22.37,-14.9" /><path
           inkscape:connector-curvature="0"
           id="path276"
           style="fill:#f3edfd;fill-opacity:1;fill-rule:nonzero;stroke:none"
           d="m 3268.93,2449.43 c 0.08,0.2 0.15,0.4 0.23,0.59 -0.08,-0.19 -0.15,-0.4 -0.23,-0.59 m 0.29,0.77 c 0.06,0.15 0.12,0.3 0.17,0.45 -0.06,-0.16 -0.11,-0.29 -0.17,-0.45 m 0.22,0.59 c 0.07,0.17 0.14,0.37 0.21,0.55 -0.06,-0.18 -0.14,-0.38 -0.21,-0.55 m 0.29,0.75 c 0.05,0.15 0.11,0.29 0.16,0.44 -0.05,-0.15 -0.11,-0.29 -0.16,-0.44 m 0.23,0.6 c 0.05,0.14 0.11,0.3 0.16,0.43 -0.06,-0.14 -0.11,-0.28 -0.16,-0.43 m 0.28,0.76 c 0.04,0.12 0.08,0.22 0.13,0.34 -0.04,-0.1 -0.09,-0.24 -0.13,-0.34 m 0.26,0.68 c 0.02,0.06 0.05,0.14 0.07,0.2 -0.03,-0.08 -0.05,-0.13 -0.07,-0.2 m 0.39,1.03 v 0.01 -0.01 m 0.13,0.34 c 0.01,0.05 0.04,0.13 0.06,0.17 -0.02,-0.05 -0.04,-0.11 -0.06,-0.17 m 0.2,0.55 c 0.02,0.05 0.04,0.11 0.07,0.17 -0.03,-0.06 -0.05,-0.12 -0.07,-0.17" /><path
           inkscape:connector-curvature="0"
           id="path278"
           style="fill:#9dadfc;fill-opacity:1;fill-rule:nonzero;stroke:none"
           d="m 3298.14,2440.6 c -7.38,2.99 -14.63,5.42 -21.55,7.17 -2.6,0.65 -5.16,1.21 -7.66,1.66 v 0 c 0.08,0.19 0.15,0.4 0.23,0.59 0.02,0.06 0.04,0.12 0.06,0.18 0.06,0.16 0.11,0.29 0.17,0.45 0.02,0.05 0.04,0.09 0.05,0.14 0.07,0.17 0.15,0.37 0.21,0.55 0.03,0.07 0.05,0.13 0.08,0.2 0.05,0.15 0.11,0.29 0.16,0.44 0.03,0.06 0.04,0.11 0.07,0.16 0.05,0.15 0.1,0.29 0.16,0.43 0.04,0.11 0.08,0.22 0.12,0.33 0.04,0.1 0.09,0.24 0.13,0.34 0.04,0.12 0.08,0.22 0.13,0.34 0.02,0.07 0.04,0.12 0.07,0.2 0.11,0.28 0.21,0.55 0.32,0.83 v 0.01 c 0.04,0.11 0.08,0.22 0.13,0.33 0.02,0.06 0.04,0.12 0.06,0.17 0.05,0.13 0.09,0.25 0.14,0.38 0.02,0.05 0.04,0.11 0.07,0.17 59.56,157.24 101.87,218.3 144.95,240.31 l 14.48,6.01 0.1,0.03 c -19.09,-10.97 -79.53,-140.64 -132.68,-261.42" /><g
           id="g282"
           clip-path="url(#clipPath286)"><path
             d="m 3241.36,2842.57 v 0 0 m 0.01,0.02 c 0.01,0.01 0.01,0.01 0.01,0.02 0,-0.01 0,-0.01 -0.01,-0.02 m 0.02,0.04 c 0.01,0.01 0.02,0.02 0.03,0.03 -0.01,-0.01 -0.02,-0.02 -0.03,-0.03 m -23.2,86.65 c -0.02,0.01 -0.03,0.02 -0.05,0.03 0.01,-0.01 0.04,-0.02 0.05,-0.03 m -0.19,0.14 c -0.01,0.01 -0.02,0.02 -0.03,0.03 0.01,-0.01 0.02,-0.02 0.03,-0.03 m -0.19,0.15 c -0.02,0.02 -0.04,0.03 -0.06,0.05 0.02,-0.02 0.04,-0.03 0.06,-0.05 m -0.18,0.14 c -0.02,0.02 -0.03,0.03 -0.05,0.04 0.02,-0.01 0.03,-0.02 0.05,-0.04 m -0.21,0.17 c -0.02,0.01 -0.03,0.03 -0.05,0.04 0.02,-0.01 0.03,-0.03 0.05,-0.04 m -0.17,0.14 c -0.02,0.01 -0.04,0.03 -0.06,0.04 0.02,-0.01 0.04,-0.03 0.06,-0.04 m -0.22,0.17 c -0.01,0.01 -0.02,0.02 -0.04,0.03 0.02,-0.01 0.03,-0.02 0.04,-0.03 m -0.18,0.15 c -0.01,0.01 -0.02,0.02 -0.04,0.03 0.02,-0.01 0.03,-0.02 0.04,-0.03 m -0.21,0.17 c 0,0 0,0 -0.01,0.01 0.01,-0.01 0.01,-0.01 0.01,-0.01 m -0.18,0.15 c -0.01,0 -0.01,0.01 -0.02,0.02 0.01,-0.01 0.01,-0.02 0.02,-0.02"
             style="fill:url(#linearGradient294);fill-opacity:1;fill-rule:nonzero;stroke:none"
             id="path296"
             inkscape:connector-curvature="0" /></g><path
           inkscape:connector-curvature="0"
           id="path298"
           style="fill:#ffb895;fill-opacity:1;fill-rule:nonzero;stroke:none"
           d="m 3246.04,2833.61 c -4.38,3.22 -6.34,6.34 -4.68,8.96 v 0 c 0,0.01 0.01,0.02 0.01,0.02 0.01,0.01 0.01,0.01 0.01,0.02 0,0 0.01,0.01 0.01,0.02 0.01,0.01 0.02,0.02 0.03,0.03 v 0 c 2.17,3.25 7.13,14.9 7.13,29.92 -0.01,16.96 -6.34,38.22 -30.19,56.57 v 0 c -0.06,0.04 -0.11,0.08 -0.17,0.13 -0.01,0.01 -0.04,0.02 -0.05,0.03 -0.04,0.04 -0.09,0.07 -0.14,0.11 -0.01,0.01 -0.02,0.02 -0.03,0.03 -0.05,0.04 -0.11,0.08 -0.16,0.12 -0.02,0.02 -0.04,0.03 -0.06,0.05 -0.04,0.03 -0.08,0.06 -0.12,0.09 -0.02,0.02 -0.03,0.03 -0.05,0.04 -0.05,0.05 -0.11,0.09 -0.16,0.13 -0.02,0.01 -0.03,0.03 -0.05,0.04 -0.04,0.03 -0.08,0.07 -0.12,0.1 -0.02,0.01 -0.04,0.03 -0.06,0.04 -0.05,0.04 -0.11,0.09 -0.16,0.13 -0.01,0.01 -0.02,0.02 -0.04,0.03 -0.04,0.04 -0.09,0.08 -0.14,0.12 -0.01,0.01 -0.02,0.02 -0.04,0.03 -0.05,0.04 -0.11,0.09 -0.17,0.14 0,0 0,0 -0.01,0.01 -0.05,0.04 -0.11,0.09 -0.17,0.14 -0.01,0 -0.01,0.01 -0.02,0.02 -15.6,12.88 -29.91,35.46 -40.54,61.47 10.18,-10.52 21.39,-14.42 32.43,-14.42 0.25,0 0.5,0 0.74,0 0.01,0 0.01,0 0.02,0 0.06,0 0.11,0 0.17,0 0,0 0,0 0.01,0 0.06,0.01 0.12,0.01 0.18,0.01 v 0 c 0.06,0 0.11,0 0.16,0 0.02,0 0.03,0 0.05,0 0.04,0 0.08,0.01 0.12,0.01 0.02,0 0.04,0 0.06,0 0.05,0 0.1,0 0.15,0 0.02,0 0.05,0.01 0.07,0.01 0.03,0 0.06,0 0.09,0 0.03,0 0.06,0 0.08,0 0.03,0 0.06,0.01 0.08,0.01 0.06,0 0.11,0 0.16,0 0.02,0 0.05,0.01 0.06,0.01 0.04,0 0.08,0 0.11,0 0.02,0 0.03,0 0.05,0 0.03,0.01 0.07,0.01 0.11,0.01 0.01,0 0.02,0 0.02,0 1.38,0.07 2.76,0.2 4.13,0.38 2.99,-5.16 6.3,-10.3 9.92,-15.4 48.07,-67.59 54.07,-105.93 21.17,-129.16" /><path
           inkscape:connector-curvature="0"
           id="path300"
           style="fill:#f46969;fill-opacity:1;fill-rule:nonzero;stroke:none"
           d="m 3209.07,2977.73 c 0.01,0 0.01,0 0.02,0 -0.01,0 -0.01,0 -0.02,0 m 0.19,0 c 0,0 0,0 0.01,0 -0.01,0 -0.01,0 -0.01,0 m 0.19,0.01 v 0 0 m 0.16,0 c 0.02,0 0.04,0 0.05,0 -0.02,0 -0.03,0 -0.05,0 m 0.17,0.01 c 0.02,0 0.04,0 0.06,0 -0.02,0 -0.04,0 -0.06,0 m 0.21,0 c 0.02,0 0.05,0.01 0.07,0.01 -0.02,0 -0.05,-0.01 -0.07,-0.01 m 0.16,0.01 c 0.03,0 0.05,0 0.08,0 -0.02,0 -0.05,0 -0.08,0 m 0.16,0.01 c 0.06,0 0.11,0 0.16,0 -0.05,0 -0.1,0 -0.16,0 m 0.22,0.01 c 0.04,0 0.08,0 0.11,0 -0.03,0 -0.07,0 -0.11,0 m 0.16,0 c 0.03,0.01 0.07,0.01 0.11,0.01 -0.04,0 -0.08,0 -0.11,-0.01 m 0.13,0.01 c 1.38,0.07 2.76,0.2 4.13,0.38 v 0 c -1.37,-0.18 -2.75,-0.31 -4.13,-0.38" /><path
           inkscape:connector-curvature="0"
           id="path302"
           style="fill:#ee6666;fill-opacity:1;fill-rule:nonzero;stroke:none"
           d="m 3208.33,2977.73 c -11.04,0 -22.25,3.9 -32.43,14.42 v 0 c 10.18,-10.52 21.4,-14.42 32.43,-14.42 2.22,0 4.43,0.16 6.62,0.45 v -0.01 c -1.37,-0.18 -2.75,-0.31 -4.13,-0.38 0,0 -0.01,0 -0.02,0 -0.04,0 -0.08,0 -0.11,-0.01 -0.02,0 -0.03,0 -0.05,0 -0.03,0 -0.07,0 -0.11,0 -0.01,0 -0.04,-0.01 -0.06,-0.01 -0.05,0 -0.1,0 -0.16,0 -0.02,0 -0.05,-0.01 -0.08,-0.01 -0.03,0 -0.05,0 -0.08,0 -0.03,0 -0.06,0 -0.09,0 -0.02,0 -0.05,-0.01 -0.07,-0.01 -0.05,0 -0.1,0 -0.15,0 -0.02,0 -0.04,0 -0.06,0 -0.04,0 -0.08,-0.01 -0.12,-0.01 -0.01,0 -0.03,0 -0.05,0 -0.05,0 -0.1,0 -0.16,0 v 0 c -0.06,0 -0.12,0 -0.18,-0.01 -0.01,0 -0.01,0 -0.01,0 -0.06,0 -0.11,0 -0.17,0 -0.01,0 -0.01,0 -0.02,0 -0.24,0 -0.49,0 -0.74,0" /><g
           id="g306"
           clip-path="url(#clipPath310)"><path
             d="m 3175.84,2992.2 c -18.46,19.12 -28.23,45.44 -30.19,74.81 1.9,-28.42 11.12,-54.01 28.45,-72.95 0.57,-0.63 1.15,-1.25 1.74,-1.86 v 0 m -30.2,74.91 c 0,0.07 -0.01,0.15 -0.01,0.23 0,-0.08 0.01,-0.16 0.01,-0.23 m -0.03,0.46 c 0,0.03 0,0.06 0,0.09 0,-0.04 0,-0.06 0,-0.09 m -0.02,0.4 c 0,0.01 0,0.01 0,0.02 0,-0.01 0,-0.01 0,-0.02"
             style="fill:url(#linearGradient318);fill-opacity:1;fill-rule:nonzero;stroke:none"
             id="path320"
             inkscape:connector-curvature="0" /></g><path
           inkscape:connector-curvature="0"
           id="path322"
           style="fill:#ffb895;fill-opacity:1;fill-rule:nonzero;stroke:none"
           d="m 3175.88,2992.16 c -0.01,0.01 -0.03,0.03 -0.04,0.04 v 0 c 0.01,-0.01 0.03,-0.02 0.04,-0.04 v 0" /><path
           inkscape:connector-curvature="0"
           id="path324"
           style="fill:#f46969;fill-opacity:1;fill-rule:nonzero;stroke:none"
           d="m 3174.1,2994.06 c -17.33,18.94 -26.55,44.53 -28.45,72.95 0,0.03 -0.01,0.07 -0.01,0.1 0,0.07 -0.01,0.15 -0.01,0.23 -0.01,0.07 -0.01,0.15 -0.02,0.23 0,0.03 0,0.05 0,0.09 -0.01,0.1 -0.02,0.21 -0.02,0.31 0,0.01 0,0.01 0,0.02 -5.88,96.71 72.6,225.53 204.89,237.08 -0.04,-0.01 -0.07,-0.01 -0.1,-0.02 0.03,0.01 0.06,0.01 0.1,0.02 h -0.03 c -9.38,-0.82 -18.43,-2.33 -27.26,-4.28 -1.45,-0.32 -2.96,-0.57 -4.4,-0.91 -3.34,-0.82 -6.59,-1.8 -9.85,-2.77 -1.9,-0.56 -3.81,-1.06 -5.67,-1.68 -3.09,-1 -6.1,-2.14 -9.11,-3.28 -1.93,-0.74 -3.88,-1.45 -5.78,-2.23 -2.9,-1.2 -5.75,-2.5 -8.58,-3.82 -1.89,-0.88 -3.77,-1.77 -5.63,-2.7 -2.76,-1.39 -5.48,-2.84 -8.15,-4.34 -1.82,-1.01 -3.61,-2.05 -5.39,-3.11 -2.62,-1.57 -5.22,-3.17 -7.76,-4.84 -1.71,-1.12 -3.39,-2.28 -5.06,-3.44 -2.51,-1.75 -5,-3.51 -7.42,-5.35 -1.58,-1.19 -3.11,-2.45 -4.65,-3.68 -2.41,-1.93 -4.82,-3.85 -7.15,-5.87 -1.37,-1.2 -2.69,-2.46 -4.04,-3.69 -2.37,-2.17 -4.77,-4.31 -7.03,-6.56 l -2.56,-2.67 c -5.46,-5.56 -10.64,-11.35 -15.5,-17.36 l -1.23,-1.46 c -1.88,-2.38 -3.65,-4.83 -5.45,-7.26 -1.16,-1.57 -2.36,-3.13 -3.47,-4.72 -1.62,-2.29 -3.12,-4.63 -4.64,-6.96 -1.18,-1.81 -2.4,-3.61 -3.52,-5.44 -1.4,-2.27 -2.73,-4.57 -4.05,-6.87 -1.12,-1.96 -2.26,-3.92 -3.32,-5.89 -1.22,-2.26 -2.38,-4.54 -3.54,-6.83 -1.03,-2.07 -2.05,-4.14 -3.02,-6.23 -1.06,-2.25 -2.07,-4.51 -3.05,-6.78 -0.94,-2.16 -1.83,-4.32 -2.7,-6.5 -0.88,-2.23 -1.75,-4.45 -2.57,-6.69 -0.83,-2.27 -1.6,-4.54 -2.35,-6.82 -0.71,-2.16 -1.44,-4.31 -2.09,-6.47 -0.73,-2.42 -1.35,-4.85 -2,-7.27 -0.54,-2.02 -1.11,-4.06 -1.59,-6.08 -0.65,-2.77 -1.18,-5.53 -1.72,-8.29 -0.32,-1.67 -0.72,-3.35 -1.01,-5.02 -0.74,-4.35 -1.34,-8.69 -1.8,-13 -0.14,-1.33 -0.18,-2.63 -0.3,-3.95 -0.25,-3.06 -0.5,-6.11 -0.61,-9.12 -0.06,-1.69 -0.02,-3.35 -0.04,-5.03 -0.02,-2.61 -0.04,-5.22 0.05,-7.79 0.07,-1.75 0.21,-3.47 0.33,-5.21 0.17,-2.44 0.35,-4.87 0.63,-7.27 0.2,-1.75 0.46,-3.47 0.72,-5.19 0.35,-2.32 0.73,-4.63 1.19,-6.9 0.34,-1.69 0.72,-3.37 1.12,-5.03 0.54,-2.23 1.14,-4.44 1.78,-6.61 0.48,-1.61 0.98,-3.21 1.51,-4.78 0.74,-2.16 1.56,-4.26 2.42,-6.35 0.6,-1.49 1.19,-2.98 1.85,-4.43 0.98,-2.12 2.06,-4.16 3.15,-6.19 0.71,-1.31 1.37,-2.65 2.14,-3.93 0.01,-0.02 0.02,-0.04 0.04,-0.07 -0.01,0 -0.01,0 -0.01,0 3.42,-5.72 7.32,-11.09 11.79,-16" /><path
           inkscape:connector-curvature="0"
           id="path326"
           style="fill:#ee6666;fill-opacity:1;fill-rule:nonzero;stroke:none"
           d="m 3175.88,2992.16 c -0.01,0.02 -0.03,0.03 -0.04,0.04 -0.59,0.61 -1.17,1.23 -1.74,1.86 -4.47,4.91 -8.37,10.28 -11.79,16 v 0 c 1.28,-2.15 2.71,-4.2 4.14,-6.24 0.72,-1.02 1.36,-2.08 2.11,-3.07 2.28,-3 4.7,-5.87 7.32,-8.59" /><path
           inkscape:connector-curvature="0"
           id="path328"
           style="fill:#f46969;fill-opacity:1;fill-rule:nonzero;stroke:none"
           d="m 3345.27,3303.45 v 0 0 m 0.1,0.03 0.01,0.01 -0.01,-0.01 m 0.11,0.04 v 0 0 m 0.21,0.08 v 0 0 m 0.1,0.03 h 0.01 -0.01 m 0.1,0.04 h 0.01 c 0,0 0,0 -0.01,0 m 0.11,0.03 h 0.01 c -0.01,0 -0.01,0 -0.01,0 m 0.1,0.04 c 0.01,0 0.01,0 0.02,0 -0.01,0 -0.01,0 -0.02,0 m 0.1,0.03 c 0.01,0 0.01,0.01 0.02,0.01 -0.01,0 -0.01,-0.01 -0.02,-0.01 m 0.11,0.04 c 0.01,0 0.01,0 0.01,0 h -0.01 m 0.21,0.07 h 0.01 -0.01 m 0.42,0.14 v 0 0 m 0.1,0.03 v 0 0 m 0.1,0.03 0.01,0.01 -0.01,-0.01 m 0.81,0.26 c 0.01,0 0.01,0 0.01,0.01 0,-0.01 0,-0.01 -0.01,-0.01 m 0.41,0.13 c 0,0 0.01,0 0.02,0 -0.01,0 -0.02,0 -0.02,0 m 0.09,0.03 c 0.01,0 0.02,0 0.03,0 -0.01,0 -0.02,0 -0.03,0 m 0.1,0.02 c 0.01,0.01 0.02,0.01 0.04,0.02 -0.02,-0.01 -0.03,-0.01 -0.04,-0.02 m 0.1,0.04 c 0.01,0 0.02,0 0.04,0.01 -0.02,-0.01 -0.03,-0.01 -0.04,-0.01 m 0.1,0.03 c 0.02,0 0.03,0 0.04,0.01 -0.01,-0.01 -0.02,-0.01 -0.04,-0.01 m 0.11,0.03 c 0.01,0 0.02,0 0.03,0.01 -0.01,-0.01 -0.02,-0.01 -0.03,-0.01 m 0.1,0.03 c 0.01,0 0.02,0 0.04,0.01 -0.02,-0.01 -0.03,-0.01 -0.04,-0.01 m 0.1,0.03 c 0.01,0 0.03,0 0.03,0.01 0,-0.01 -0.02,-0.01 -0.03,-0.01 m 0.1,0.03 c 0.02,0 0.03,0 0.05,0.01 -0.02,-0.01 -0.03,-0.01 -0.05,-0.01 m 0.1,0.03 c 0.01,0 0.03,0 0.04,0.01 -0.01,-0.01 -0.02,-0.01 -0.04,-0.01 m 0.11,0.03 c 0.01,0 0.02,0 0.03,0.01 -0.01,-0.01 -0.02,-0.01 -0.03,-0.01 m 0.1,0.02 c 0.01,0.01 0.03,0.01 0.04,0.02 -0.02,-0.01 -0.03,-0.01 -0.04,-0.02 m 0.1,0.03 c 0.01,0.01 0.03,0.01 0.04,0.02 -0.01,-0.01 -0.03,-0.01 -0.04,-0.02 m 0.1,0.03 c 0.01,0.01 0.02,0.01 0.04,0.01 -0.02,0 -0.03,0 -0.04,-0.01 m 0.1,0.03 c 0.02,0 0.03,0.01 0.04,0.01 -0.01,0 -0.02,-0.01 -0.04,-0.01 m 0.1,0.03 c 0.01,0 0.03,0.01 0.04,0.01 -0.01,0 -0.02,-0.01 -0.04,-0.01 m 0.11,0.03 c 0,0 0.02,0 0.03,0.01 -0.01,-0.01 -0.02,-0.01 -0.03,-0.01 m 0.1,0.02 c 0.01,0.01 0.02,0.01 0.03,0.01 -0.01,0 -0.02,0 -0.03,-0.01 m 0.1,0.03 c 0.01,0.01 0.03,0.01 0.05,0.02 -0.02,-0.01 -0.03,-0.01 -0.05,-0.02 m 0.1,0.03 c 0.02,0.01 0.04,0.01 0.06,0.02 -0.02,-0.01 -0.04,-0.01 -0.06,-0.02" /><path
           inkscape:connector-curvature="0"
           id="path330"
           style="fill:#f67b7b;fill-opacity:1;fill-rule:nonzero;stroke:none"
           d="m 3194.47,3031.58 c -25.45,124.07 89.8,250.24 150.8,271.87 -60.99,-21.63 -176.16,-147.77 -150.74,-271.81 -0.02,-0.02 -0.04,-0.04 -0.06,-0.06" /><path
           inkscape:connector-curvature="0"
           id="path332"
           style="fill:#c87137;fill-opacity:1;fill-rule:nonzero;stroke:none"
           d="m 3214.95,2978.18 c -10.17,17.54 -16.8,35.44 -20.48,53.4 0.02,0.02 0.04,0.04 0.06,0.06 3.69,-17.97 10.32,-35.9 20.49,-53.45 -0.02,0 -0.05,-0.01 -0.07,-0.01" /><path
           inkscape:connector-curvature="0"
           id="path334"
           style="fill:#f07878;fill-opacity:1;fill-rule:nonzero;stroke:none"
           d="m 3175.9,2992.15 c -0.01,0 -0.02,0.01 -0.02,0.01 v 0 h 0.01 c 0,0 0,-0.01 0.01,-0.01" /><path
           inkscape:connector-curvature="0"
           id="path336"
           style="fill:#f67b7b;fill-opacity:1;fill-rule:nonzero;stroke:none"
           d="m 3345.27,3303.45 c 0.04,0.01 0.07,0.02 0.1,0.03 -0.03,-0.01 -0.06,-0.02 -0.1,-0.03 m 0.11,0.04 c 0.04,0.01 0.07,0.02 0.1,0.03 -0.03,-0.01 -0.07,-0.02 -0.1,-0.03 m 0.1,0.03 c 0.07,0.03 0.14,0.05 0.21,0.08 -0.07,-0.03 -0.14,-0.05 -0.21,-0.08 m 0.21,0.08 c 0.04,0.01 0.07,0.02 0.1,0.03 -0.03,-0.01 -0.06,-0.02 -0.1,-0.03 m 0.11,0.03 c 0.03,0.01 0.06,0.03 0.09,0.04 -0.03,-0.02 -0.06,-0.03 -0.09,-0.04 m 0.1,0.04 c 0.04,0.01 0.07,0.02 0.1,0.03 -0.03,-0.01 -0.06,-0.02 -0.1,-0.03 m 0.11,0.03 c 0.03,0.01 0.06,0.03 0.09,0.04 -0.03,-0.01 -0.06,-0.02 -0.09,-0.04 m 0.11,0.04 c 0.03,0.01 0.06,0.02 0.08,0.03 -0.02,-0.01 -0.05,-0.02 -0.08,-0.03 m 0.1,0.04 c 0.03,0.01 0.06,0.02 0.09,0.03 -0.03,-0.01 -0.06,-0.02 -0.09,-0.03 m 0.1,0.03 c 0.07,0.03 0.13,0.05 0.2,0.07 -0.06,-0.02 -0.13,-0.05 -0.2,-0.07 m 0.21,0.07 c 0.14,0.05 0.27,0.09 0.41,0.14 -0.14,-0.05 -0.28,-0.09 -0.41,-0.14 m 0.41,0.14 c 0.03,0.01 0.07,0.02 0.1,0.03 -0.04,-0.01 -0.06,-0.02 -0.1,-0.03 m 0.1,0.03 c 0.04,0.01 0.07,0.02 0.1,0.03 -0.03,-0.01 -0.06,-0.02 -0.1,-0.03 m 0.11,0.04 c 0.27,0.08 0.53,0.17 0.8,0.25 -0.27,-0.08 -0.53,-0.17 -0.8,-0.25 m 0.81,0.26 c 0.14,0.04 0.26,0.08 0.4,0.12 -0.13,-0.04 -0.26,-0.08 -0.4,-0.12 m 0.42,0.12 c 0.02,0.01 0.05,0.02 0.07,0.03 -0.02,-0.01 -0.05,-0.02 -0.07,-0.03 m 0.1,0.03 c 0.02,0.01 0.05,0.02 0.07,0.02 -0.02,0 -0.05,-0.01 -0.07,-0.02 m 0.11,0.04 c 0.02,0 0.04,0.01 0.06,0.02 -0.02,-0.01 -0.04,-0.02 -0.06,-0.02 m 0.1,0.03 c 0.02,0 0.04,0.01 0.06,0.02 -0.02,-0.01 -0.04,-0.02 -0.06,-0.02 m 0.1,0.03 c 0.02,0 0.05,0.01 0.07,0.02 -0.02,-0.01 -0.04,-0.02 -0.07,-0.02 m 0.1,0.03 c 0.02,0 0.04,0.01 0.07,0.02 -0.02,-0.01 -0.05,-0.02 -0.07,-0.02 m 0.11,0.03 c 0.02,0 0.04,0.01 0.06,0.02 -0.02,-0.01 -0.04,-0.01 -0.06,-0.02 m 0.09,0.03 c 0.03,0 0.05,0.01 0.07,0.02 -0.02,-0.01 -0.04,-0.02 -0.07,-0.02 m 0.12,0.03 c 0.01,0 0.03,0.01 0.05,0.02 -0.02,-0.01 -0.03,-0.01 -0.05,-0.02 m 0.09,0.03 c 0.02,0 0.05,0.01 0.07,0.02 -0.02,-0.01 -0.05,-0.02 -0.07,-0.02 m 0.1,0.03 c 0.02,0 0.04,0.01 0.07,0.01 -0.02,0 -0.05,-0.01 -0.07,-0.01 m 0.11,0.03 c 0.02,0 0.04,0.01 0.06,0.01 -0.02,0 -0.04,-0.01 -0.06,-0.01 m 0.1,0.03 c 0.02,0 0.04,0.01 0.06,0.01 -0.02,0 -0.04,-0.01 -0.06,-0.01 m 0.1,0.02 c 0.02,0.01 0.04,0.01 0.06,0.02 -0.02,0 -0.04,-0.01 -0.06,-0.02 m 0.1,0.03 c 0.02,0.01 0.04,0.01 0.06,0.02 -0.02,-0.01 -0.04,-0.01 -0.06,-0.02 m 0.1,0.03 c 0.02,0 0.04,0.01 0.07,0.02 -0.03,-0.01 -0.04,-0.01 -0.07,-0.02 m 0.1,0.03 c 0.02,0 0.04,0.01 0.07,0.01 -0.03,0 -0.05,-0.01 -0.07,-0.01 m 0.1,0.02 c 0.02,0.01 0.05,0.02 0.07,0.02 -0.03,0 -0.05,-0.01 -0.07,-0.02 m 0.12,0.04 c 0.01,0 0.03,0.01 0.05,0.01 -0.02,-0.01 -0.03,-0.01 -0.05,-0.01 m 0.11,0.03 c 0.01,0 0.02,0 0.04,0.01 -0.02,-0.01 -0.03,-0.01 -0.04,-0.01" /><path
           inkscape:connector-curvature="0"
           id="path338"
           style="fill:#c87137;fill-opacity:1;fill-rule:nonzero;stroke:none"
           d="m 3162.32,3010.06 c -0.02,0.03 -0.03,0.05 -0.04,0.07 -0.77,1.28 -1.43,2.62 -2.14,3.93 -1.09,2.03 -2.17,4.07 -3.15,6.19 -0.66,1.45 -1.25,2.94 -1.85,4.43 -0.86,2.09 -1.68,4.19 -2.42,6.35 -0.53,1.57 -1.03,3.17 -1.51,4.78 -0.64,2.17 -1.24,4.38 -1.78,6.61 -0.4,1.66 -0.78,3.34 -1.12,5.03 -0.46,2.27 -0.84,4.58 -1.19,6.9 -0.26,1.72 -0.52,3.44 -0.72,5.19 -0.28,2.4 -0.46,4.83 -0.63,7.27 -0.12,1.74 -0.26,3.46 -0.33,5.21 -0.09,2.57 -0.07,5.18 -0.05,7.79 0.02,1.68 -0.02,3.34 0.04,5.03 0.11,3.01 0.36,6.06 0.61,9.12 0.12,1.32 0.16,2.62 0.3,3.95 0.46,4.31 1.06,8.65 1.8,13 0.29,1.67 0.69,3.35 1.01,5.02 0.54,2.76 1.07,5.52 1.72,8.29 0.48,2.02 1.05,4.06 1.59,6.08 0.65,2.42 1.27,4.85 2,7.27 0.65,2.16 1.38,4.31 2.09,6.47 0.75,2.28 1.52,4.55 2.35,6.82 0.82,2.24 1.69,4.46 2.57,6.69 0.87,2.18 1.76,4.34 2.7,6.5 0.98,2.27 1.99,4.53 3.05,6.78 0.97,2.09 1.99,4.16 3.02,6.23 1.16,2.29 2.32,4.57 3.54,6.83 1.06,1.97 2.2,3.93 3.32,5.89 1.32,2.3 2.65,4.6 4.05,6.87 1.12,1.83 2.34,3.63 3.52,5.44 1.52,2.33 3.02,4.67 4.64,6.96 1.11,1.59 2.31,3.15 3.47,4.72 1.8,2.43 3.57,4.88 5.45,7.26 l 1.23,1.46 c 4.86,6.01 10.04,11.8 15.5,17.36 l 2.56,2.67 c 2.26,2.25 4.66,4.39 7.03,6.56 1.35,1.23 2.67,2.49 4.04,3.69 2.33,2.02 4.74,3.94 7.15,5.87 1.54,1.23 3.07,2.49 4.65,3.68 2.42,1.84 4.91,3.6 7.42,5.35 1.67,1.16 3.35,2.32 5.06,3.44 2.54,1.67 5.14,3.27 7.76,4.84 1.78,1.06 3.57,2.1 5.39,3.11 2.67,1.5 5.39,2.95 8.15,4.34 1.86,0.93 3.74,1.82 5.63,2.7 2.83,1.32 5.68,2.62 8.58,3.82 1.9,0.78 3.85,1.49 5.78,2.23 3.01,1.14 6.02,2.28 9.11,3.28 1.86,0.62 3.77,1.12 5.67,1.68 3.26,0.97 6.51,1.95 9.85,2.77 1.44,0.34 2.95,0.59 4.4,0.91 8.83,1.95 17.88,3.46 27.26,4.28 h 0.03 c -0.04,-0.01 -0.07,-0.01 -0.1,-0.02 -0.02,-0.01 -0.03,-0.01 -0.04,-0.01 -0.02,-0.01 -0.04,-0.01 -0.06,-0.02 -0.02,0 -0.04,-0.01 -0.05,-0.01 -0.02,-0.01 -0.04,-0.01 -0.05,-0.02 -0.02,0 -0.05,-0.01 -0.07,-0.02 -0.01,0 -0.02,0 -0.03,-0.01 -0.03,0 -0.05,-0.01 -0.07,-0.01 -0.01,-0.01 -0.03,-0.01 -0.03,-0.01 -0.03,-0.01 -0.05,-0.02 -0.07,-0.02 -0.01,0 -0.03,-0.01 -0.04,-0.01 -0.02,-0.01 -0.04,-0.01 -0.06,-0.02 -0.01,0 -0.02,-0.01 -0.04,-0.01 -0.02,-0.01 -0.04,-0.01 -0.06,-0.02 -0.02,0 -0.03,0 -0.04,-0.01 -0.02,0 -0.04,-0.01 -0.06,-0.01 -0.01,-0.01 -0.03,-0.01 -0.04,-0.02 -0.02,0 -0.04,-0.01 -0.06,-0.01 -0.01,-0.01 -0.03,-0.01 -0.04,-0.02 -0.03,0 -0.05,-0.01 -0.07,-0.01 -0.01,-0.01 -0.02,-0.01 -0.03,-0.01 -0.02,-0.01 -0.05,-0.02 -0.07,-0.02 -0.01,-0.01 -0.03,-0.01 -0.04,-0.01 -0.02,-0.01 -0.04,-0.02 -0.05,-0.02 -0.02,-0.01 -0.03,-0.01 -0.05,-0.01 -0.02,-0.01 -0.04,-0.02 -0.07,-0.02 0,-0.01 -0.02,-0.01 -0.03,-0.01 -0.02,-0.01 -0.04,-0.02 -0.06,-0.02 -0.02,-0.01 -0.03,-0.01 -0.04,-0.01 -0.03,-0.01 -0.05,-0.02 -0.07,-0.02 -0.01,-0.01 -0.02,-0.01 -0.03,-0.01 -0.02,-0.01 -0.05,-0.02 -0.07,-0.02 -0.01,-0.01 -0.02,-0.01 -0.04,-0.01 -0.02,-0.01 -0.04,-0.02 -0.06,-0.02 -0.02,-0.01 -0.03,-0.01 -0.04,-0.01 -0.02,-0.01 -0.04,-0.02 -0.06,-0.02 -0.02,-0.01 -0.03,-0.01 -0.04,-0.02 -0.02,0 -0.05,-0.01 -0.07,-0.02 -0.01,0 -0.02,0 -0.03,0 -0.02,-0.01 -0.05,-0.02 -0.07,-0.03 -0.01,0 -0.02,0 -0.02,0 -0.14,-0.04 -0.26,-0.08 -0.4,-0.12 0,-0.01 0,-0.01 -0.01,-0.01 -0.27,-0.08 -0.53,-0.17 -0.8,-0.25 l -0.01,-0.01 c -0.03,-0.01 -0.06,-0.02 -0.1,-0.03 v 0 c -0.03,-0.01 -0.07,-0.02 -0.1,-0.03 v 0 c -0.14,-0.05 -0.27,-0.09 -0.41,-0.14 h -0.01 c -0.07,-0.02 -0.13,-0.04 -0.2,-0.07 0,0 0,0 -0.01,0 -0.03,-0.01 -0.06,-0.02 -0.09,-0.03 -0.01,0 -0.01,-0.01 -0.02,-0.01 -0.02,-0.01 -0.05,-0.02 -0.08,-0.03 -0.01,0 -0.01,0 -0.02,0 -0.03,-0.01 -0.06,-0.03 -0.09,-0.04 H 3346 c -0.03,-0.01 -0.06,-0.02 -0.1,-0.03 h -0.01 c -0.03,-0.01 -0.06,-0.03 -0.09,-0.04 h -0.01 c -0.03,-0.01 -0.06,-0.02 -0.1,-0.03 v 0 c -0.07,-0.03 -0.14,-0.05 -0.21,-0.08 v 0 c -0.03,-0.01 -0.06,-0.02 -0.1,-0.03 l -0.01,-0.01 c -0.03,-0.01 -0.06,-0.02 -0.1,-0.03 v 0 c -61,-21.63 -176.25,-147.8 -150.8,-271.87 -6.37,-5.78 -18.18,-15.39 -32.16,-21.52" /><path
           inkscape:connector-curvature="0"
           id="path340"
           style="fill:#c87137;fill-opacity:1;fill-rule:nonzero;stroke:none"
           d="m 3208.33,2977.73 c -11.03,0 -22.25,3.9 -32.43,14.42 -0.01,0 -0.01,0.01 -0.01,0.01 h -0.01 v 0 0 c -2.62,2.72 -5.04,5.59 -7.32,8.59 -0.75,0.99 -1.39,2.05 -2.11,3.07 -1.43,2.04 -2.86,4.09 -4.13,6.24 13.97,6.13 25.78,15.74 32.15,21.52 3.68,-17.96 10.31,-35.86 20.48,-53.4 -2.19,-0.29 -4.4,-0.45 -6.62,-0.45" /><path
           inkscape:connector-curvature="0"
           id="path342"
           style="fill:#152274;fill-opacity:1;fill-rule:nonzero;stroke:none"
           d="m 3606.98,1411.02 81.13,-814.43 23.79,-10.809 -77.88,837.199 -27.04,-11.96" /><path
           inkscape:connector-curvature="0"
           id="path344"
           style="fill:#e7ddfb;fill-opacity:1;fill-rule:nonzero;stroke:none"
           d="m 3634.02,1422.98 h 34.61 l 88.7,-817.73 -45.43,-19.469 -77.88,837.199" /><path
           inkscape:connector-curvature="0"
           id="path346"
           style="fill:#152274;fill-opacity:1;fill-rule:nonzero;stroke:none"
           d="m 3869.82,1472.73 214.17,-742.011 h 43.27 l -235.8,742.011 h -21.64" /><path
           inkscape:connector-curvature="0"
           id="path348"
           style="fill:#e7ddfb;fill-opacity:1;fill-rule:nonzero;stroke:none"
           d="m 3891.46,1472.73 c 0,0 47.59,25.97 49.75,10.82 2.17,-15.14 224.99,-737.679 224.99,-737.679 l -38.94,-15.152 -235.8,742.011" /><path
           inkscape:connector-curvature="0"
           id="path350"
           style="fill:#e7ddfb;fill-opacity:1;fill-rule:nonzero;stroke:none"
           d="m 3454.47,1440.28 -112.5,-709.561 h -36.77 l 123.31,720.381 25.96,-10.82" /><path
           inkscape:connector-curvature="0"
           id="path352"
           style="fill:#152274;fill-opacity:1;fill-rule:nonzero;stroke:none"
           d="m 3428.51,1451.1 h -29.2 l -126.56,-703.069 32.45,-17.312 123.31,720.381" /><path
           inkscape:connector-curvature="0"
           id="path354"
           style="fill:#152274;fill-opacity:1;fill-rule:nonzero;stroke:none"
           d="m 3685.95,1451.1 88.69,-605.721 36.78,-21.641 -99.52,627.362 h -25.95" /><path
           inkscape:connector-curvature="0"
           id="path356"
           style="fill:#e7ddfb;fill-opacity:1;fill-rule:nonzero;stroke:none"
           d="m 3711.9,1451.1 36.78,21.63 103.84,-629.519 -41.1,-19.473 -99.52,627.362" /><path
           inkscape:connector-curvature="0"
           id="path358"
           style="fill:#2abed4;fill-opacity:1;fill-rule:nonzero;stroke:none"
           d="m 3164.64,1521.98 c -30.17,12.95 -21.93,57.65 10.86,59.24 183.15,8.87 581.06,-55.05 556.76,379.33 -25.11,448.55 63.27,456.57 250.59,471.01 283.04,21.83 377.38,-803.27 -81.84,-988.06 -282.02,-113.49 -579.49,11.13 -736.37,78.48" /><path
           inkscape:connector-curvature="0"
           id="path360"
           style="fill:#2abed4;fill-opacity:1;fill-rule:nonzero;stroke:none"
           d="m 3982.85,2431.56 c -2.88,-0.21 -5.75,-0.44 -8.61,-0.65 175.51,-182.02 177.65,-781.57 -205.4,-935.71 -206.55,-83.12 -421.3,-38.51 -583.13,17.78 161.43,-68.65 445.4,-178.1 715.3,-69.48 459.22,184.79 364.88,1009.89 81.84,988.06" /></g></g></g></svg>