<?xml version="1.0" encoding="UTF-8" standalone="no"?>
<!-- Created with Inkscape (http://www.inkscape.org/) -->

<svg
   xmlns:dc="http://purl.org/dc/elements/1.1/"
   xmlns:cc="http://creativecommons.org/ns#"
   xmlns:rdf="http://www.w3.org/1999/02/22-rdf-syntax-ns#"
   xmlns:svg="http://www.w3.org/2000/svg"
   xmlns="http://www.w3.org/2000/svg"
   xmlns:sodipodi="http://sodipodi.sourceforge.net/DTD/sodipodi-0.dtd"
   xmlns:inkscape="http://www.inkscape.org/namespaces/inkscape"
   version="1.1"
   id="svg2"
   xml:space="preserve"
   width="1600"
   height="1600"
   viewBox="0 0 1600 1600"
   sodipodi:docname="resiliencia.svg"
   inkscape:version="0.92.3 (2405546, 2018-03-11)"><metadata
     id="metadata8"><rdf:RDF><cc:Work
         rdf:about=""><dc:format>image/svg+xml</dc:format><dc:type
           rdf:resource="http://purl.org/dc/dcmitype/StillImage" /><dc:title></dc:title></cc:Work></rdf:RDF></metadata><defs
     id="defs6" /><sodipodi:namedview
     pagecolor="#ffffff"
     bordercolor="#666666"
     borderopacity="1"
     objecttolerance="10"
     gridtolerance="10"
     guidetolerance="10"
     inkscape:pageopacity="0"
     inkscape:pageshadow="2"
     inkscape:window-width="1366"
     inkscape:window-height="684"
     id="namedview4"
     showgrid="false"
     inkscape:zoom="0.295"
     inkscape:cx="800"
     inkscape:cy="800"
     inkscape:window-x="0"
     inkscape:window-y="28"
     inkscape:window-maximized="1"
     inkscape:current-layer="g10" /><g
     id="g10"
     inkscape:groupmode="layer"
     inkscape:label="ink_ext_XXXXXX"
     transform="matrix(1.3333333,0,0,-1.3333333,0,1600)"><g
       id="g327"
       transform="matrix(1.072627,0,0,1.0934396,-55.918063,34.244396)"><g
         id="g263"><path
           inkscape:connector-curvature="0"
           id="path16"
           style="fill:#89b397;fill-opacity:1;fill-rule:nonzero;stroke:none;stroke-width:0.1"
           d="M 184.253,319.809 H 91.9965 l 176.6215,86.605 h 73.299 v -5.195 h -43.862 l -156.709,-76.483 52.795,-0.047 -9.888,-4.88" /><path
           inkscape:connector-curvature="0"
           id="path18"
           style="fill:#39201b;fill-opacity:1;fill-rule:nonzero;stroke:none;stroke-width:0.1"
           d="m 335.934,401.219 h 5.983 v 121.569 h -5.983 V 401.219" /><path
           inkscape:connector-curvature="0"
           id="path20"
           style="fill:#a38c69;fill-opacity:1;fill-rule:nonzero;stroke:none;stroke-width:0.1"
           d="M 346.111,491.269 192.544,407.576 v 33.801 l 153.567,83.694 v -33.802" /><path
           inkscape:connector-curvature="0"
           id="path22"
           style="fill:#907b5b;fill-opacity:1;fill-rule:nonzero;stroke:none;stroke-width:0.1"
           d="M 346.111,525.071 H 337.82 L 184.253,441.377 h 8.291 l 153.567,83.694" /><path
           inkscape:connector-curvature="0"
           id="path24"
           style="fill:#39201b;fill-opacity:1;fill-rule:nonzero;stroke:none;stroke-width:0.1"
           d="m 188.398,443.637 -4.145,-2.26 V 319.809 h 8.291 l 4.194,2.283 V 443.66 l -8.34,-0.023" /><path
           inkscape:connector-curvature="0"
           id="path26"
           style="fill:#39201b;fill-opacity:1;fill-rule:nonzero;stroke:none;stroke-width:0.1"
           d="m 333.625,522.788 h 8.292 l 4.194,2.283 h -8.291 l -4.195,-2.283" /><path
           inkscape:connector-curvature="0"
           id="path28"
           style="fill:#39201b;fill-opacity:1;fill-rule:nonzero;stroke:none;stroke-width:0.1"
           d="m 346.111,525.071 h -4.194 V 401.219 h 4.194 v 123.852" /><path
           inkscape:connector-curvature="0"
           id="path30"
           style="fill:#89b397;fill-opacity:1;fill-rule:nonzero;stroke:none;stroke-width:0.1"
           d="m 513.861,319.809 h -92.257 l 176.622,86.605 h 73.299 v -5.195 h -43.862 l -156.709,-76.483 52.795,-0.047 -9.888,-4.88" /><path
           inkscape:connector-curvature="0"
           id="path32"
           style="fill:#39201b;fill-opacity:1;fill-rule:nonzero;stroke:none;stroke-width:0.1"
           d="m 665.542,401.219 h 5.983 v 121.569 h -5.983 V 401.219" /><path
           inkscape:connector-curvature="0"
           id="path34"
           style="fill:#a38c69;fill-opacity:1;fill-rule:nonzero;stroke:none;stroke-width:0.1"
           d="M 675.719,491.269 522.152,407.576 v 33.801 l 153.567,83.694 v -33.802" /><path
           inkscape:connector-curvature="0"
           id="path36"
           style="fill:#907b5b;fill-opacity:1;fill-rule:nonzero;stroke:none;stroke-width:0.1"
           d="m 675.719,525.071 h -8.291 L 513.861,441.377 h 8.291 l 153.567,83.694" /><path
           inkscape:connector-curvature="0"
           id="path38"
           style="fill:#39201b;fill-opacity:1;fill-rule:nonzero;stroke:none;stroke-width:0.1"
           d="m 518.006,443.637 -4.145,-2.26 V 319.809 h 8.291 l 4.194,2.283 V 443.66 l -8.34,-0.023" /><path
           inkscape:connector-curvature="0"
           id="path40"
           style="fill:#39201b;fill-opacity:1;fill-rule:nonzero;stroke:none;stroke-width:0.1"
           d="m 663.233,522.788 h 8.292 l 4.194,2.283 h -8.291 l -4.195,-2.283" /><path
           inkscape:connector-curvature="0"
           id="path42"
           style="fill:#39201b;fill-opacity:1;fill-rule:nonzero;stroke:none;stroke-width:0.1"
           d="m 675.719,525.071 h -4.194 V 401.219 h 4.194 v 123.852" /><path
           inkscape:connector-curvature="0"
           id="path44"
           style="fill:#89b397;fill-opacity:1;fill-rule:nonzero;stroke:none;stroke-width:0.1"
           d="m 843.469,319.809 h -92.257 l 176.622,86.605 h 73.296 v -5.195 h -43.859 l -156.709,-76.483 52.795,-0.047 -9.888,-4.88" /><path
           inkscape:connector-curvature="0"
           id="path46"
           style="fill:#39201b;fill-opacity:1;fill-rule:nonzero;stroke:none;stroke-width:0.1"
           d="m 995.15,401.219 h 5.98 v 121.569 h -5.98 V 401.219" /><path
           inkscape:connector-curvature="0"
           id="path48"
           style="fill:#a38c69;fill-opacity:1;fill-rule:nonzero;stroke:none;stroke-width:0.1"
           d="M 1005.33,491.269 851.76,407.576 v 33.801 l 153.57,83.694 v -33.802" /><path
           inkscape:connector-curvature="0"
           id="path50"
           style="fill:#907b5b;fill-opacity:1;fill-rule:nonzero;stroke:none;stroke-width:0.1"
           d="m 1005.33,525.071 h -8.294 L 843.469,441.377 h 8.291 l 153.57,83.694" /><path
           inkscape:connector-curvature="0"
           id="path52"
           style="fill:#39201b;fill-opacity:1;fill-rule:nonzero;stroke:none;stroke-width:0.1"
           d="m 847.614,443.637 -4.145,-2.26 V 319.809 h 8.291 l 4.194,2.283 V 443.66 l -8.34,-0.023" /><path
           inkscape:connector-curvature="0"
           id="path54"
           style="fill:#39201b;fill-opacity:1;fill-rule:nonzero;stroke:none;stroke-width:0.1"
           d="m 992.841,522.788 h 8.289 l 4.2,2.283 h -8.294 l -4.195,-2.283" /><path
           inkscape:connector-curvature="0"
           id="path56"
           style="fill:#39201b;fill-opacity:1;fill-rule:nonzero;stroke:none;stroke-width:0.1"
           d="m 1005.33,525.071 h -4.2 V 401.219 h 4.2 v 123.852" /><path
           inkscape:connector-curvature="0"
           id="path58"
           style="fill:#cde3d2;fill-opacity:1;fill-rule:nonzero;stroke:none;stroke-width:0.1"
           d="m 254.757,535.031 c -0.105,0 -0.211,0.007 -0.317,0.021 -5.755,0.794 -11.729,1.299 -17.758,1.504 -1.271,0.043 -2.266,1.107 -2.222,2.378 0.043,1.27 1.115,2.31 2.378,2.222 6.186,-0.21 12.32,-0.73 18.23,-1.544 1.259,-0.173 2.139,-1.334 1.965,-2.594 -0.158,-1.153 -1.145,-1.987 -2.276,-1.987 z m -54.059,-0.509 c -1.123,0 -2.106,0.822 -2.274,1.965 -0.185,1.259 0.684,2.427 1.942,2.613 5.892,0.866 12.01,1.482 18.184,1.829 1.251,0.035 2.355,-0.9 2.426,-2.169 0.071,-1.269 -0.9,-2.355 -2.169,-2.427 -6.036,-0.339 -12.015,-0.94 -17.771,-1.787 -0.113,-0.017 -0.227,-0.024 -0.338,-0.024 z m 88.967,-8.489 c -0.279,0 -0.562,0.051 -0.838,0.158 -5.455,2.135 -11.148,3.969 -16.922,5.448 -1.231,0.316 -1.974,1.569 -1.658,2.8 0.315,1.232 1.563,1.979 2.8,1.659 5.955,-1.526 11.829,-3.416 17.458,-5.622 1.183,-0.463 1.767,-1.798 1.303,-2.981 -0.355,-0.908 -1.223,-1.462 -2.143,-1.462 z m -123.953,-0.34 c -0.935,0 -1.815,0.573 -2.158,1.504 -0.441,1.191 0.169,2.515 1.361,2.956 5.643,2.084 11.532,3.901 17.502,5.399 1.234,0.304 2.482,-0.44 2.792,-1.672 0.31,-1.233 -0.439,-2.482 -1.672,-2.792 -5.81,-1.458 -11.538,-3.224 -17.027,-5.253 -0.263,-0.097 -0.532,-0.142 -0.798,-0.142 z m -32.198,-16.28 c -0.747,0 -1.48,0.363 -1.922,1.032 -0.701,1.061 -0.41,2.489 0.651,3.189 5.085,3.36 10.423,6.457 15.862,9.205 1.135,0.572 2.519,0.119 3.092,-1.018 0.573,-1.134 0.118,-2.518 -1.016,-3.091 -5.282,-2.666 -10.464,-5.673 -15.401,-8.935 -0.391,-0.259 -0.831,-0.382 -1.266,-0.382 z m 187.798,-0.661 c -0.466,0 -0.937,0.141 -1.344,0.436 -4.821,3.479 -9.881,6.672 -15.037,9.488 -1.115,0.61 -1.525,2.008 -0.916,3.123 0.608,1.116 2.004,1.529 3.123,0.917 5.324,-2.908 10.547,-6.204 15.524,-9.797 1.03,-0.743 1.263,-2.181 0.519,-3.212 -0.451,-0.624 -1.154,-0.955 -1.869,-0.955 z M 105.843,486.221 c -0.572,0 -1.145,0.211 -1.591,0.638 -0.918,0.878 -0.951,2.334 -0.073,3.253 4.251,4.448 8.749,8.668 13.37,12.546 0.974,0.819 2.423,0.689 3.242,-0.284 0.817,-0.972 0.691,-2.424 -0.283,-3.242 -4.492,-3.769 -8.867,-7.874 -13.002,-12.199 -0.452,-0.474 -1.057,-0.712 -1.663,-0.712 z m 242.047,-1.904 c -0.643,0 -1.283,0.268 -1.738,0.791 -3.947,4.541 -8.122,8.848 -12.41,12.803 -0.934,0.862 -0.992,2.318 -0.131,3.251 0.862,0.934 2.317,0.992 3.252,0.132 4.411,-4.069 8.705,-8.499 12.763,-13.166 0.834,-0.96 0.732,-2.414 -0.228,-3.247 -0.435,-0.379 -0.973,-0.564 -1.508,-0.564 z m 20.942,-29.464 c -0.792,0 -1.563,0.409 -1.991,1.143 -3.049,5.238 -6.302,10.303 -9.667,15.055 -0.735,1.039 -0.489,2.474 0.549,3.21 1.039,0.731 2.473,0.485 3.207,-0.549 3.444,-4.864 6.771,-10.045 9.889,-15.4 0.639,-1.098 0.267,-2.508 -0.831,-3.146 -0.364,-0.213 -0.762,-0.313 -1.156,-0.313 z m 15.707,-32.6 c -0.917,0 -1.784,0.552 -2.141,1.457 -2.223,5.628 -4.637,11.163 -7.175,16.447 -0.55,1.146 -0.067,2.52 1.078,3.071 1.145,0.552 2.521,0.066 3.071,-1.078 2.585,-5.383 5.043,-11.018 7.306,-16.75 0.467,-1.182 -0.113,-2.519 -1.295,-2.986 -0.277,-0.11 -0.563,-0.161 -0.844,-0.161 z m 11.065,-34.484 c -1.03,0 -1.967,0.695 -2.23,1.74 -1.457,5.787 -3.119,11.603 -4.94,17.283 -0.388,1.211 0.279,2.506 1.489,2.894 1.207,0.388 2.505,-0.278 2.894,-1.489 1.85,-5.774 3.539,-11.683 5.02,-17.565 0.31,-1.233 -0.437,-2.482 -1.67,-2.794 -0.188,-0.046 -0.377,-0.069 -0.563,-0.069" /><path
           inkscape:connector-curvature="0"
           id="path60"
           style="fill:#cde3d2;fill-opacity:1;fill-rule:nonzero;stroke:none;stroke-width:0.1"
           d="m 400.873,360.81 c -1.167,0 -2.156,0.878 -2.285,2.049 -0.004,0.033 -0.376,3.344 -1.379,8.938 -0.224,1.251 0.609,2.446 1.86,2.671 0.503,0.087 0.997,0.009 1.423,-0.201 0.413,0.242 0.902,0.358 1.418,0.297 1.263,-0.144 2.169,-1.285 2.025,-2.548 -0.642,-5.616 -0.759,-8.948 -0.761,-8.981 -0.04,-1.206 -1.005,-2.175 -2.211,-2.222 l -0.09,-0.003" /><path
           inkscape:connector-curvature="0"
           id="path62"
           style="fill:#cde3d2;fill-opacity:1;fill-rule:nonzero;stroke:none;stroke-width:0.1"
           d="m 600.245,532.619 -0.23,0.01 c -5.731,0.57 -11.71,0.889 -17.772,0.95 -1.271,0.014 -2.291,1.053 -2.278,2.325 0.013,1.271 0.995,2.276 2.324,2.278 6.197,-0.063 12.314,-0.39 18.181,-0.971 1.265,-0.126 2.188,-1.253 2.063,-2.519 -0.118,-1.186 -1.119,-2.073 -2.288,-2.073 z m -53.91,-1.398 c -1.122,0 -2.105,0.823 -2.274,1.966 -0.186,1.257 0.683,2.427 1.941,2.613 5.851,0.861 11.939,1.499 18.099,1.893 1.279,0.08 2.363,-0.882 2.444,-2.15 0.081,-1.267 -0.882,-2.362 -2.15,-2.443 -6.033,-0.387 -11.996,-1.01 -17.722,-1.855 -0.113,-0.017 -0.227,-0.024 -0.338,-0.024 z m 89.106,-5.867 c -0.238,0 -0.479,0.036 -0.717,0.115 -5.496,1.804 -11.262,3.326 -17.143,4.526 -1.245,0.255 -2.049,1.47 -1.795,2.715 0.254,1.247 1.466,2.045 2.715,1.795 6.054,-1.236 11.995,-2.805 17.658,-4.664 1.208,-0.395 1.865,-1.696 1.468,-2.903 -0.317,-0.97 -1.218,-1.584 -2.186,-1.584 z M 511.41,522.629 c -0.945,0 -1.831,0.586 -2.167,1.527 -0.428,1.197 0.196,2.513 1.393,2.942 5.613,2.003 11.494,3.76 17.481,5.223 1.238,0.305 2.481,-0.456 2.781,-1.69 0.302,-1.235 -0.455,-2.48 -1.689,-2.781 -5.833,-1.425 -11.561,-3.136 -17.025,-5.088 -0.256,-0.09 -0.517,-0.133 -0.774,-0.133 z m 156.432,-12.781 c -0.435,0 -0.872,0.121 -1.26,0.377 -4.889,3.206 -10.076,6.123 -15.418,8.672 -1.148,0.547 -1.635,1.919 -1.087,3.067 0.547,1.147 1.924,1.634 3.067,1.086 5.53,-2.637 10.9,-5.657 15.961,-8.977 1.063,-0.697 1.36,-2.123 0.662,-3.186 -0.442,-0.674 -1.176,-1.039 -1.925,-1.039 z m -188.705,-3.063 c -0.755,0 -1.494,0.37 -1.935,1.052 -0.69,1.067 -0.384,2.491 0.683,3.182 5.073,3.28 10.429,6.306 15.918,8.994 1.143,0.554 2.522,0.087 3.079,-1.056 0.559,-1.14 0.087,-2.52 -1.055,-3.079 -5.326,-2.607 -10.522,-5.542 -15.443,-8.724 -0.386,-0.25 -0.819,-0.369 -1.247,-0.369 z m 215.818,-20.53 c -0.639,0 -1.274,0.264 -1.729,0.781 -3.932,4.461 -8.154,8.667 -12.548,12.498 -0.959,0.836 -1.058,2.289 -0.223,3.247 0.836,0.958 2.288,1.059 3.247,0.223 4.547,-3.965 8.914,-8.312 12.979,-12.927 0.839,-0.953 0.747,-2.407 -0.207,-3.246 -0.438,-0.387 -0.98,-0.576 -1.519,-0.576 z m -243.458,-2.487 c -0.567,0 -1.136,0.209 -1.58,0.63 -0.924,0.873 -0.965,2.329 -0.091,3.252 4.2,4.444 8.685,8.66 13.327,12.528 0.979,0.814 2.427,0.682 3.241,-0.295 0.814,-0.975 0.682,-2.427 -0.294,-3.241 -4.504,-3.753 -8.854,-7.841 -12.931,-12.153 -0.452,-0.479 -1.061,-0.721 -1.672,-0.721 z m 263.856,-27.165 c -0.821,0 -1.617,0.44 -2.032,1.216 -2.833,5.304 -5.933,10.42 -9.211,15.207 -0.719,1.049 -0.451,2.481 0.598,3.199 1.046,0.717 2.481,0.452 3.199,-0.598 3.374,-4.925 6.562,-10.186 9.474,-15.638 0.6,-1.122 0.176,-2.516 -0.945,-3.115 -0.346,-0.184 -0.716,-0.271 -1.083,-0.271 z m -285.529,-1.581 c -0.403,0 -0.811,0.105 -1.181,0.328 -1.091,0.654 -1.444,2.066 -0.791,3.157 3.163,5.275 6.591,10.378 10.189,15.165 0.765,1.016 2.208,1.219 3.223,0.457 1.016,-0.764 1.22,-2.207 0.457,-3.223 -3.504,-4.659 -6.841,-9.627 -9.921,-14.766 -0.432,-0.719 -1.194,-1.118 -1.976,-1.118 z m 299.402,-31.685 c -0.978,0 -1.883,0.626 -2.195,1.607 -1.816,5.746 -3.87,11.387 -6.102,16.768 -0.487,1.175 0.07,2.522 1.243,3.009 1.18,0.49 2.522,-0.071 3.009,-1.244 2.283,-5.504 4.382,-11.273 6.24,-17.145 0.382,-1.212 -0.289,-2.505 -1.501,-2.889 -0.231,-0.072 -0.465,-0.106 -0.694,-0.106 z m -314.93,-0.839 c -0.267,0 -0.538,0.046 -0.803,0.145 -1.191,0.443 -1.797,1.768 -1.353,2.959 2.142,5.753 4.53,11.407 7.098,16.807 0.546,1.147 1.919,1.633 3.066,1.089 1.149,-0.545 1.636,-1.919 1.09,-3.067 -2.51,-5.278 -4.846,-10.808 -6.941,-16.435 -0.345,-0.926 -1.223,-1.498 -2.157,-1.498 z m 323.103,-34.314 c -1.116,0 -2.095,0.812 -2.271,1.949 -0.914,5.906 -2.055,11.818 -3.386,17.568 -0.288,1.239 0.483,2.475 1.721,2.762 1.252,0.286 2.475,-0.484 2.761,-1.722 1.359,-5.861 2.52,-11.885 3.452,-17.903 0.195,-1.256 -0.667,-2.432 -1.922,-2.627 -0.12,-0.018 -0.238,-0.027 -0.355,-0.027 z m -332.929,-0.4 c -0.15,0 -0.301,0.014 -0.454,0.045 -1.245,0.249 -2.054,1.462 -1.804,2.707 1.191,5.954 2.628,11.919 4.27,17.73 0.346,1.223 1.615,1.939 2.841,1.588 1.223,-0.346 1.934,-1.616 1.588,-2.84 -1.61,-5.696 -3.019,-11.544 -4.187,-17.38 -0.218,-1.093 -1.18,-1.85 -2.254,-1.85" /><path
           inkscape:connector-curvature="0"
           id="path64"
           style="fill:#cde3d2;fill-opacity:1;fill-rule:nonzero;stroke:none;stroke-width:0.1"
           d="m 739.926,360.81 -0.106,0.003 c -1.229,0.056 -2.198,1.07 -2.196,2.302 0,0.033 -0.002,3.378 -0.42,9.016 -0.093,1.267 0.858,2.37 2.126,2.464 0.41,0.035 0.813,-0.05 1.166,-0.22 0.37,0.134 0.777,0.174 1.188,0.098 1.251,-0.228 2.079,-1.427 1.851,-2.676 -1.012,-5.564 -1.315,-8.858 -1.318,-8.89 -0.108,-1.192 -1.107,-2.097 -2.291,-2.097" /><path
           inkscape:connector-curvature="0"
           id="path66"
           style="fill:#cde3d2;fill-opacity:1;fill-rule:nonzero;stroke:none;stroke-width:0.1"
           d="m 807.611,487.268 c -0.652,0 -1.299,0.276 -1.755,0.811 -0.824,0.968 -0.707,2.419 0.262,3.243 5.022,4.275 10.334,8.327 15.786,12.049 1.048,0.71 2.479,0.448 3.198,-0.604 0.716,-1.05 0.445,-2.482 -0.604,-3.199 -5.318,-3.628 -10.499,-7.582 -15.398,-11.751 -0.433,-0.369 -0.962,-0.549 -1.489,-0.549 z m -26.984,-28.409 c -0.49,0 -0.983,0.156 -1.401,0.477 -1.009,0.774 -1.197,2.218 -0.423,3.227 4.036,5.252 8.375,10.331 12.897,15.099 0.875,0.924 2.331,0.96 3.252,0.085 0.923,-0.873 0.961,-2.331 0.086,-3.253 -4.411,-4.652 -8.646,-9.609 -12.585,-14.736 -0.454,-0.59 -1.136,-0.899 -1.826,-0.899 z m -20.692,-33.29 c -0.343,0 -0.692,0.076 -1.02,0.24 -1.139,0.565 -1.605,1.944 -1.04,3.083 2.951,5.954 6.195,11.788 9.641,17.343 0.671,1.08 2.091,1.413 3.168,0.742 1.081,-0.67 1.412,-2.089 0.742,-3.169 -3.369,-5.431 -6.541,-11.137 -9.428,-16.96 -0.402,-0.81 -1.217,-1.279 -2.063,-1.279 z m -14.157,-36.571 c -0.211,0 -0.424,0.028 -0.636,0.09 -1.221,0.35 -1.927,1.624 -1.577,2.846 1.815,6.326 3.942,12.651 6.323,18.801 0.458,1.185 1.796,1.776 2.975,1.316 1.185,-0.459 1.776,-1.791 1.316,-2.976 -2.33,-6.023 -4.413,-12.218 -6.191,-18.411 -0.289,-1.009 -1.21,-1.666 -2.21,-1.666" /><path
           inkscape:connector-curvature="0"
           id="path68"
           style="fill:#cde3d2;fill-opacity:1;fill-rule:nonzero;stroke:none;stroke-width:0.1"
           d="m 839.978,509.382 c -0.818,0 -1.611,0.437 -2.026,1.207 -0.605,1.118 -0.187,2.514 0.931,3.118 2.698,1.458 5.489,2.882 8.297,4.232 1.149,0.549 2.521,0.069 3.071,-1.075 0.551,-1.146 0.069,-2.52 -1.076,-3.072 -2.743,-1.32 -5.47,-2.71 -8.105,-4.133 -0.347,-0.189 -0.722,-0.277 -1.092,-0.277" /><path
           inkscape:connector-curvature="0"
           id="path70"
           style="fill:#2e2d2d;fill-opacity:1;fill-rule:nonzero;stroke:none;stroke-width:0.1"
           d="m 779.903,666.314 4.421,-19.252 -4.923,-0.957 -4.244,19.403 z m 0.319,-23.965 9.828,2.142 -7.362,27.596 -8.319,-2.976 -5.871,26.837 -53.323,-12.969 16.831,-77.226 54.226,9.122 -6.01,27.474" /><path
           inkscape:connector-curvature="0"
           id="path72"
           style="fill:#fbd6b1;fill-opacity:1;fill-rule:nonzero;stroke:none;stroke-width:0.1"
           d="m 971.445,799.492 c 8.867,-34.09 -7.49,-67.85 -38.176,-75.831 -30.685,-7.981 -64.08,12.838 -72.947,46.928 -8.867,34.091 8.821,68.196 39.506,76.178 53.233,13.845 62.75,-13.184 71.617,-47.275" /><path
           inkscape:connector-curvature="0"
           id="path74"
           style="fill:#4e2e22;fill-opacity:1;fill-rule:nonzero;stroke:none;stroke-width:0.1"
           d="m 877.52,808.395 c 0,0 47.536,0.631 87.016,19.593 -13.832,35.444 -52.874,52.629 -97.134,23.203 -52.582,-34.958 -2.985,-103.464 15.459,-117.962 4.315,18.898 2.18,38.84 2.18,38.84 0,0 -9.685,-8.224 -12.091,4.711 -1.655,8.899 10.427,6.004 10.427,6.004 l -5.857,25.611" /><path
           inkscape:connector-curvature="0"
           id="path76"
           style="fill:#4e2e22;fill-opacity:1;fill-rule:nonzero;stroke:none;stroke-width:0.1"
           d="m 877.8,822.618 c 0,0 -39.48,30.689 -63.667,2.051 -32.027,-37.921 40.313,-72.709 -7.928,-101.453 36.136,-14.705 64.257,20.424 41.478,50.235 -33.074,43.285 11.883,54.338 30.117,49.167" /><path
           inkscape:connector-curvature="0"
           id="path78"
           style="fill:#4e2e22;fill-opacity:1;fill-rule:nonzero;stroke:none;stroke-width:0.1"
           d="m 909.717,783.667 c 1.316,-5.058 0.302,-8.278 -1.838,-8.835 -2.139,-0.556 -4.594,1.762 -5.909,6.82 -1.316,5.058 -0.302,8.279 1.837,8.835 2.14,0.557 4.594,-1.762 5.91,-6.82" /><path
           inkscape:connector-curvature="0"
           id="path80"
           style="fill:#4e2e22;fill-opacity:1;fill-rule:nonzero;stroke:none;stroke-width:0.1"
           d="m 960.82,796.841 c 1.316,-5.058 0.302,-8.279 -1.837,-8.835 -2.14,-0.557 -4.594,1.762 -5.91,6.82 -1.316,5.058 -0.302,8.278 1.838,8.835 2.139,0.556 4.594,-1.762 5.909,-6.82" /><path
           inkscape:connector-curvature="0"
           id="path82"
           style="fill:#ec6180;fill-opacity:1;fill-rule:nonzero;stroke:none;stroke-width:0.1"
           d="m 923.339,757.128 c 1.99,-7.652 9.806,-12.241 17.458,-10.251 7.651,1.99 12.24,9.806 10.25,17.458 l -27.708,-7.207" /><path
           inkscape:connector-curvature="0"
           id="path84"
           style="fill:#fbd6b1;fill-opacity:1;fill-rule:nonzero;stroke:none;stroke-width:0.1"
           d="m 915.548,737.041 5.573,-21.429 18.253,-22.955 4.755,28.94 -5.574,21.429 -23.007,-5.985" /><path
           inkscape:connector-curvature="0"
           id="path86"
           style="fill:#2e2d2d;fill-opacity:1;fill-rule:nonzero;stroke:none;stroke-width:0.1"
           d="m 921.121,715.612 -25.315,-16 20.703,-59.33 -1.864,-32.799 85.093,22.133 -16.532,28.014 -11.424,63.107 -27.653,0.86 -4.755,-28.94 -18.253,22.955" /><path
           inkscape:connector-curvature="0"
           id="path88"
           style="fill:#f8f8f8;fill-opacity:1;fill-rule:nonzero;stroke:none;stroke-width:0.1"
           d="m 944.129,721.597 5.401,-0.168 -7.33,-39.637 -25.755,30.864 4.676,2.956 18.253,-22.955 4.755,28.94" /><path
           inkscape:connector-curvature="0"
           id="path90"
           style="fill:#f8f8f8;fill-opacity:1;fill-rule:nonzero;stroke:none;stroke-width:0.1"
           d="m 921.121,715.612 -4.676,-2.956 2.917,-19.399 6.198,5.291 8.509,0.781 -12.948,16.283" /><path
           inkscape:connector-curvature="0"
           id="path92"
           style="fill:#f8f8f8;fill-opacity:1;fill-rule:nonzero;stroke:none;stroke-width:0.1"
           d="m 944.129,721.597 5.401,-0.168 7.027,-18.498 -7.99,1.602 -7.811,-3.465 3.373,20.529" /><path
           inkscape:connector-curvature="0"
           id="path94"
           style="fill:#7a7b7c;fill-opacity:1;fill-rule:nonzero;stroke:none;stroke-width:0.1"
           d="m 948.037,673.075 c 0.48,-1.846 -0.628,-3.732 -2.474,-4.213 -1.846,-0.48 -3.733,0.628 -4.213,2.474 -0.48,1.847 0.627,3.733 2.474,4.213 1.846,0.48 3.733,-0.627 4.213,-2.474" /><path
           inkscape:connector-curvature="0"
           id="path96"
           style="fill:#7a7b7c;fill-opacity:1;fill-rule:nonzero;stroke:none;stroke-width:0.1"
           d="m 953.257,653.008 c 0.48,-1.847 -0.628,-3.733 -2.474,-4.213 -1.847,-0.481 -3.733,0.627 -4.213,2.473 -0.481,1.847 0.627,3.733 2.473,4.213 1.847,0.481 3.733,-0.627 4.214,-2.473" /><path
           inkscape:connector-curvature="0"
           id="path98"
           style="fill:#7a7b7c;fill-opacity:1;fill-rule:nonzero;stroke:none;stroke-width:0.1"
           d="m 958.476,632.94 c 0.48,-1.847 -0.627,-3.733 -2.473,-4.213 -1.847,-0.481 -3.733,0.627 -4.214,2.473 -0.48,1.847 0.627,3.733 2.474,4.214 1.847,0.48 3.733,-0.628 4.213,-2.474" /><path
           inkscape:connector-curvature="0"
           id="path100"
           style="fill:#fbd6b1;fill-opacity:1;fill-rule:nonzero;stroke:none;stroke-width:0.1"
           d="m 925.815,601.925 -0.08,-47.516 -46.778,-14.04 c 0,0 -8.464,-23.752 0.754,-27.09 10.585,-3.834 8.974,18.779 8.974,18.779 l 51.445,9.359 9.234,60.353 -23.549,0.155" /><path
           inkscape:connector-curvature="0"
           id="path102"
           style="fill:#2e2d2d;fill-opacity:1;fill-rule:nonzero;stroke:none;stroke-width:0.1"
           d="m 878.957,540.369 -14.553,-7.137 1.03,-2.099 8.734,2.217 c 0,0 -5.741,-9.693 0.172,-21.75 9.274,-18.907 16.215,7.98 14.346,20.458 0,0 1.226,-16.276 -5.432,-13.779 -10.414,3.905 -4.297,22.09 -4.297,22.09" /><path
           inkscape:connector-curvature="0"
           id="path104"
           style="fill:#fbd6b1;fill-opacity:1;fill-rule:nonzero;stroke:none;stroke-width:0.1"
           d="m 967.395,611.092 51.405,-43.572 32.91,-40.01 c 0,0 25.17,-1.533 25.82,8.248 0.74,11.235 -20.53,3.406 -20.53,3.406 l -27.41,38.242 -36.562,43.368 -25.633,-9.682" /><path
           inkscape:connector-curvature="0"
           id="path106"
           style="fill:#2e2d2d;fill-opacity:1;fill-rule:nonzero;stroke:none;stroke-width:0.1"
           d="m 1051.71,527.51 10.9,-11.998 2.12,1.921 -4.05,6.784 c 0,0 10.01,-2.181 19.95,6.848 15.59,14.161 -12.17,13.361 -23.63,8.099 0,0 15.29,5.699 14.74,-1.39 -0.86,-11.09 -20.03,-10.264 -20.03,-10.264" /><path
           inkscape:connector-curvature="0"
           id="path108"
           style="fill:#2e2d2d;fill-opacity:1;fill-rule:nonzero;stroke:none;stroke-width:0.1"
           d="m 1009.31,603.128 -85.04,-27.144 -2.455,33.364 72.253,18.793 15.242,-25.013" /><path
           inkscape:connector-curvature="0"
           id="path110"
           style="fill:#81a992;fill-opacity:1;fill-rule:nonzero;stroke:none;stroke-width:0.1"
           d="m 922.362,599.81 -0.547,9.538 v 0 l 0.698,-9.485 -0.151,-0.053" /><path
           inkscape:connector-curvature="0"
           id="path112"
           style="fill:#81a992;fill-opacity:1;fill-rule:nonzero;stroke:none;stroke-width:0.1"
           d="m 995.614,625.605 -1.546,2.536 v 0 l 1.631,-2.506 -0.085,-0.03" /><path
           inkscape:connector-curvature="0"
           id="path114"
           style="fill:#2a2928;fill-opacity:1;fill-rule:nonzero;stroke:none;stroke-width:0.1"
           d="m 922.513,599.863 -0.698,9.485 72.253,18.793 1.546,-2.536 -73.101,-25.742" /><path
           inkscape:connector-curvature="0"
           id="path116"
           style="fill:#fbd6b1;fill-opacity:1;fill-rule:nonzero;stroke:none;stroke-width:0.1"
           d="m 1009.07,788.938 c 0,0 -4.6,14.379 -14.215,7.894 -9.613,-6.485 2.067,-15.277 2.067,-15.277 l 12.148,7.383" /><path
           inkscape:connector-curvature="0"
           id="path118"
           style="fill:#f8f8f8;fill-opacity:1;fill-rule:nonzero;stroke:none;stroke-width:0.1"
           d="m 998.487,778.8 -2.44,2.793 14.103,8.411 1.78,-2.981 -13.443,-8.223" /><path
           inkscape:connector-curvature="0"
           id="path120"
           style="fill:#2e2d2d;fill-opacity:1;fill-rule:nonzero;stroke:none;stroke-width:0.1"
           d="m 964.611,705.508 c 31.088,-7.32 95.469,12.136 47.429,83.123 l -15.654,-9.013 C 1010.04,760.97 1028,715.945 971.782,720.738 l -7.171,-15.23" /><path
           inkscape:connector-curvature="0"
           id="path122"
           style="fill:#7a7b7c;fill-opacity:1;fill-rule:nonzero;stroke:none;stroke-width:0.1"
           d="m 1014.86,779.736 c -0.59,0.703 -1.63,0.799 -2.33,0.217 -0.7,-0.587 -0.8,-1.628 -0.22,-2.328 0.58,-0.702 1.63,-0.798 2.33,-0.218 0.7,0.585 0.8,1.627 0.22,2.329" /><path
           inkscape:connector-curvature="0"
           id="path124"
           style="fill:#7a7b7c;fill-opacity:1;fill-rule:nonzero;stroke:none;stroke-width:0.1"
           d="m 1012.08,784.629 c -0.58,0.702 -1.62,0.798 -2.33,0.215 -0.7,-0.582 -0.8,-1.625 -0.21,-2.326 0.58,-0.702 1.62,-0.799 2.33,-0.216 0.7,0.582 0.79,1.625 0.21,2.327" /><path
           inkscape:connector-curvature="0"
           id="path126"
           style="fill:#fbd6b1;fill-opacity:1;fill-rule:nonzero;stroke:none;stroke-width:0.1"
           d="m 795.535,652.426 c 0,0 -12.651,-8.241 -16.01,2.858 -3.358,11.099 11.251,10.54 11.251,10.54 l 4.759,-13.398" /><path
           inkscape:connector-curvature="0"
           id="path128"
           style="fill:#f8f8f8;fill-opacity:1;fill-rule:nonzero;stroke:none;stroke-width:0.1"
           d="m 793.706,667.453 -3.656,-0.624 5.624,-15.428 3.264,1.186 -5.232,14.866" /><path
           inkscape:connector-curvature="0"
           id="path130"
           style="fill:#2e2d2d;fill-opacity:1;fill-rule:nonzero;stroke:none;stroke-width:0.1"
           d="m 904.235,685.313 -106.232,-34.038 -6.443,16.871 104.246,31.466 8.429,-14.299" /><path
           inkscape:connector-curvature="0"
           id="path132"
           style="fill:#7a7b7c;fill-opacity:1;fill-rule:nonzero;stroke:none;stroke-width:0.1"
           d="m 805.807,656.391 c -0.897,-0.176 -1.766,0.408 -1.943,1.302 -0.173,0.898 0.41,1.765 1.305,1.941 0.893,0.177 1.763,-0.408 1.942,-1.301 0.174,-0.897 -0.409,-1.766 -1.304,-1.942" /><path
           inkscape:connector-curvature="0"
           id="path134"
           style="fill:#7a7b7c;fill-opacity:1;fill-rule:nonzero;stroke:none;stroke-width:0.1"
           d="m 800.565,654.35 c -0.897,-0.175 -1.764,0.408 -1.942,1.304 -0.176,0.894 0.408,1.764 1.303,1.939 0.896,0.175 1.765,-0.407 1.941,-1.303 0.177,-0.894 -0.406,-1.764 -1.302,-1.94" /></g><path
         style="opacity:0.1;fill:#999999;stroke-width:0.93233877"
         inkscape:connector-curvature="0"
         id="path14"
         d="m 692.45574,856.12658 c -69.56585,1.19082 -136.16059,21.33861 -199.79566,43.52496 -63.63508,22.18636 -126.72824,46.87178 -194.79899,58.09371 -43.7886,7.21623 -93.72597,7.5532 -128.50617,-15.06863 -33.45172,-21.7317 -43.77043,-58.61786 -49.04936,-92.73571 -3.97703,-25.66565 -6.10738,-52.62487 6.42449,-76.43057 8.70819,-16.51103 23.89646,-30.26755 34.51185,-46.04246 36.91319,-54.89901 12.72297,-123.69097 -25.31643,-178.44294 -17.79153,-25.69043 -38.607726,-50.25051 -52.234124,-77.50636 -13.626399,-27.25583 -19.610994,-58.35061 -6.795693,-85.73843 12.71521,-27.15389 42.213007,-47.23587 74.032517,-61.18646 64.63546,-28.33852 140.34545,-35.56524 214.11049,-39.17231 163.28812,-7.98328 327.18605,-0.87741 490.64234,6.23065 60.4938,2.63492 121.24645,5.29199 180.6365,15.04655 32.969,5.41277 66.9627,13.72157 90.6286,32.88282 30.0558,24.32347 36.9033,64.82364 15.9558,94.43971 -35.1216,49.61949 -130.0404,60.6048 -154.91832,114.06077 -13.69562,29.42097 -0.73997,62.64391 17.92722,90.41291 40.0477,59.59242 107.9977,112.38261 110.4477,179.81288 1.6864,46.3159 -32.2267,92.15031 -83.7847,113.24756 C 978.5211,953.67334 904.18904,949.62758 865.27217,911.01941 825.23341,871.23449 753.87811,855.0717 692.45574,856.12658 Z" /></g></g></svg>