<?xml version="1.0" encoding="UTF-8" standalone="no"?>
<!-- Created with Inkscape (http://www.inkscape.org/) -->

<svg
   xmlns:dc="http://purl.org/dc/elements/1.1/"
   xmlns:cc="http://creativecommons.org/ns#"
   xmlns:rdf="http://www.w3.org/1999/02/22-rdf-syntax-ns#"
   xmlns:svg="http://www.w3.org/2000/svg"
   xmlns="http://www.w3.org/2000/svg"
   xmlns:sodipodi="http://sodipodi.sourceforge.net/DTD/sodipodi-0.dtd"
   xmlns:inkscape="http://www.inkscape.org/namespaces/inkscape"
   version="1.1"
   id="svg2"
   xml:space="preserve"
   width="666.66669"
   height="666.66669"
   viewBox="0 0 666.66669 666.66669"
   sodipodi:docname="trabajo-colaborador.svg"
   inkscape:version="0.92.3 (2405546, 2018-03-11)"><metadata
     id="metadata8"><rdf:RDF><cc:Work
         rdf:about=""><dc:format>image/svg+xml</dc:format><dc:type
           rdf:resource="http://purl.org/dc/dcmitype/StillImage" /><dc:title></dc:title></cc:Work></rdf:RDF></metadata><defs
     id="defs6" /><sodipodi:namedview
     pagecolor="#ffffff"
     bordercolor="#666666"
     borderopacity="1"
     objecttolerance="10"
     gridtolerance="10"
     guidetolerance="10"
     inkscape:pageopacity="0"
     inkscape:pageshadow="2"
     inkscape:window-width="1366"
     inkscape:window-height="684"
     id="namedview4"
     showgrid="false"
     inkscape:zoom="0.70799998"
     inkscape:cx="333.33334"
     inkscape:cy="489.89056"
     inkscape:window-x="0"
     inkscape:window-y="28"
     inkscape:window-maximized="1"
     inkscape:current-layer="g12" /><g
     id="g10"
     inkscape:groupmode="layer"
     inkscape:label="ink_ext_XXXXXX"
     transform="matrix(1.3333333,0,0,-1.3333333,0,666.66667)"><g
       id="g12"
       transform="scale(0.1)"><path
         d="M 0,0 H 5000 V 5000 H 0 Z"
         style="fill:#ffffff;fill-opacity:1;fill-rule:nonzero;stroke:none"
         id="path14"
         inkscape:connector-curvature="0" /><path
         d="m 4426.0474,2368.51 c -108.2126,0 -202.5715,12.19 -252.2819,30.26 v 58.48 c 49.7104,18.06 144.0693,30.25 252.2819,30.25 159.9556,0 289.6151,-26.63 289.6151,-59.49 0,-32.86 -129.6595,-59.5 -289.6151,-59.5"
         style="fill:#f0f0ef;fill-opacity:1;fill-rule:nonzero;stroke:none;stroke-width:0.97915095"
         id="path16"
         inkscape:connector-curvature="0" /><path
         d="m 4254.9992,2683.85 -65.8268,221.11 h 235.3794 l 65.8268,-221.11 z m -71.0807,1029.46 65.8268,-221.12 h -235.3794 l -65.8268,221.12 z m 146.0347,-490.57 h -235.3794 l -65.8268,221.12 h 235.389 z m -220.9887,-48.33 h 235.3794 l 65.8172,-221.11 h -235.3794 z m 457.5761,-746.4 h 42.0023 l -471.4012,1583.56 h -42.0022 l 74.3883,-249.93 H 3934.158 l -74.4075,249.93 h -42.0023 L 4289.159,2428.01 h 42.0022 l -61.7714,207.51 h 235.3699 l 61.7809,-207.51"
         style="fill:#798ace;fill-opacity:1;fill-rule:nonzero;stroke:none;stroke-width:0.97915095"
         id="path18"
         inkscape:connector-curvature="0" /><path
         d="M 4067.2115,2225.8 H 899.30334 l 106.55786,77.05 h 3167.9043 l -106.554,-77.05"
         style="fill:#f0f0ef;fill-opacity:1;fill-rule:nonzero;stroke:none;stroke-width:0.97915095"
         id="path20"
         inkscape:connector-curvature="0" /><path
         d="M 1026.3474,2302.85 H 4173.7645 V 4369.46 H 1026.3474 Z"
         style="fill:#e0d3ed;fill-opacity:1;fill-rule:nonzero;stroke:none;stroke-width:0.97915095"
         id="path22"
         inkscape:connector-curvature="0" /><path
         d="M 3977.4354,3538.63 H 2627.4768 v 58.05 h 1349.9586 v -58.05"
         style="fill:#c7b8e2;fill-opacity:1;fill-rule:nonzero;stroke:none;stroke-width:0.97915095"
         id="path24"
         inkscape:connector-curvature="0" /><path
         d="m 2627.4768,3345.3 h 1349.9586 v 58.0508 H 2627.4768 Z"
         style="fill:#c7b8e2;fill-opacity:1;fill-rule:nonzero;stroke:none;stroke-width:0.97915095"
         id="path26"
         inkscape:connector-curvature="0" /><path
         d="m 2627.4768,3151.96 h 1349.9586 v 58.0508 H 2627.4768 Z"
         style="fill:#c7b8e2;fill-opacity:1;fill-rule:nonzero;stroke:none;stroke-width:0.97915095"
         id="path28"
         inkscape:connector-curvature="0" /><path
         d="M 3977.4354,3731.96 H 2627.4768 v 58.05 h 1349.9586 v -58.05"
         style="fill:#c7b8e2;fill-opacity:1;fill-rule:nonzero;stroke:none;stroke-width:0.97915095"
         id="path30"
         inkscape:connector-curvature="0" /><path
         d="M 3977.4354,3925.3 H 2627.4768 v 58.04 h 1349.9586 v -58.04"
         style="fill:#c7b8e2;fill-opacity:1;fill-rule:nonzero;stroke:none;stroke-width:0.97915095"
         id="path32"
         inkscape:connector-curvature="0" /><path
         d="m 1026.3474,4158.21 h 3147.4171 v 212.57 H 1026.3474 Z"
         style="fill:#6c80c9;fill-opacity:1;fill-rule:nonzero;stroke:none;stroke-width:0.97915095"
         id="path34"
         inkscape:connector-curvature="0" /><path
         d="m 3325.763,4230.48 h -443.5499 v 68.02 h 443.5499 v -68.02"
         style="fill:#ffffff;fill-opacity:1;fill-rule:nonzero;stroke:none;stroke-width:0.97915095"
         id="path36"
         inkscape:connector-curvature="0" /><path
         d="m 3462.9198,2842.51 -74.676,309.45 h 145.8143 l 39.126,-132.61 -110.2643,-176.84 m 54.0152,367.5 h -142.6983 c -81.0899,27.4 -144.2419,83.77 -188.1425,135.29 h 85.8645 c 3.95,-3.38 7.7082,-6.44 11.198,-9.14 50.3337,-38.86 215.2364,-63.29 215.2364,-63.29 l 18.5419,-62.86 m -305.7219,193.34 h -68.9619 c -19.4432,29.09 -29.3757,49.27 -29.3757,49.27 l 16.8834,37.75 c 0,0 39.452,-44.15 81.4542,-87.02"
         style="fill:#c3b9e2;fill-opacity:1;fill-rule:nonzero;stroke:none;stroke-width:0.97915095"
         id="path38"
         inkscape:connector-curvature="0" /><path
         d="m 3271.9587,3345.3 h -85.8645 c -17.8133,20.9 -32.4532,41 -43.843,58.05 h 68.9619 c 21.1689,-21.62 42.9994,-42.91 60.7456,-58.05"
         style="fill:#ada3d9;fill-opacity:1;fill-rule:nonzero;stroke:none;stroke-width:0.97915095"
         id="path40"
         inkscape:connector-curvature="0" /><path
         d="m 3534.0581,3151.96 h -145.8143 l -14.0071,58.05 v 0 h 142.6983 l 17.1231,-58.05"
         style="fill:#ada3d9;fill-opacity:1;fill-rule:nonzero;stroke:none;stroke-width:0.97915095"
         id="path42"
         inkscape:connector-curvature="0" /><path
         d="m 1468.7478,3823.35 -70.3042,74.99 c 0,0 32.8464,124.42 88.99,259.87 h 96.8132 l -115.499,-334.86"
         style="fill:#c3b9e2;fill-opacity:1;fill-rule:nonzero;stroke:none;stroke-width:0.97915095"
         id="path44"
         inkscape:connector-curvature="0" /><path
         d="m 1584.2468,4158.21 h -96.8132 c 30.5357,73.67 67.9552,150.6 110.7436,212.57 l 59.1253,-0.77 -73.0557,-211.8"
         style="fill:#5c70bf;fill-opacity:1;fill-rule:nonzero;stroke:none;stroke-width:0.97915095"
         id="path46"
         inkscape:connector-curvature="0" /><path
         d="m 2312.436,4003.36 -124.6358,9.99 c 0,0 -17.7462,63.54 -47.467,144.86 h 104.3105 l 67.7923,-154.85"
         style="fill:#c3b9e2;fill-opacity:1;fill-rule:nonzero;stroke:none;stroke-width:0.97915095"
         id="path48"
         inkscape:connector-curvature="0" /><path
         d="m 2244.6437,4158.21 h -104.3105 c -24.5245,67.08 -57.1887,146.26 -94.7424,211.8 l 107.0525,-1.67 92.0004,-210.13"
         style="fill:#5c70bf;fill-opacity:1;fill-rule:nonzero;stroke:none;stroke-width:0.97915095"
         id="path50"
         inkscape:connector-curvature="0" /><path
         d="m 1026.3474,2830.01 4.6212,321.95 1514.6992,126.89 -278.0815,-82.15 -1241.2389,-366.69"
         style="fill:#c3b9e2;fill-opacity:1;fill-rule:nonzero;stroke:none;stroke-width:0.97915095"
         id="path52"
         inkscape:connector-curvature="0" /><path
         d="m 717.91135,3330.42 c 0,0 219.85363,58.3 273.71928,273.64 l 39.33797,-32.84 c 0,0 -30.6988,-190.25 -217.46451,-285.39 l -95.59274,44.59"
         style="fill:#dc376e;fill-opacity:1;fill-rule:nonzero;stroke:none;stroke-width:0.97915095"
         id="path54"
         inkscape:connector-curvature="0" /><path
         d="M 2545.6678,3278.85 1054.4346,2986.59 905.06727,3815.75 2396.2966,4108.01 2545.6678,3278.85"
         style="fill:#6c80c9;fill-opacity:1;fill-rule:nonzero;stroke:none;stroke-width:0.97915095"
         id="path56"
         inkscape:connector-curvature="0" /><path
         d="m 826.34924,1969.03 c -195.88905,0 -354.68746,26.64 -354.68746,59.51 0,32.86 158.79841,59.5 354.68746,59.5 195.89286,0 354.69126,-26.64 354.69126,-59.5 0,-32.87 -158.7984,-59.51 -354.69126,-59.51"
         style="fill:#f0f0ef;fill-opacity:1;fill-rule:nonzero;stroke:none;stroke-width:0.97915095"
         id="path58"
         inkscape:connector-curvature="0" /><path
         d="m 1224.2125,3341.71 c -8.0918,17.47 -30.996,7.82 -49.4613,-3.93 2.1476,7.22 3.1447,14.93 -2.3393,15.15 -10.3927,0.41 -23.582,-34.63 -23.582,-34.63 l -3.7123,-32.08 27.2943,-13.35 c 13.8825,20.58 66.1816,37.83 51.8006,68.84"
         style="fill:#fbc45c;fill-opacity:1;fill-rule:nonzero;stroke:none;stroke-width:0.97915095"
         id="path60"
         inkscape:connector-curvature="0" /><path
         d="m 645.16338,2088.04 66.69546,-27.36 c 1.49851,-0.61 2.52819,-1.66 3.13124,-2.87 0.59921,-1.22 0.77849,-2.61 0.56182,-3.94 l -0.60688,-1.91 c -0.89163,-1.79 -2.60681,-3.16 -5.02187,-3.26 l -118.35219,-4.9 5.83487,40.69 47.75755,3.55"
         style="fill:#f24e8e;fill-opacity:1;fill-rule:nonzero;stroke:none;stroke-width:0.97915095"
         id="path62"
         inkscape:connector-curvature="0" /><path
         d="m 593.26792,2054.22 -1.69696,-10.42 118.35219,4.9 c 3.2204,0.14 5.19827,2.52 5.62875,5.17 l 0.008,0.35 H 593.26792"
         style="fill:#dc376e;fill-opacity:1;fill-rule:nonzero;stroke:none;stroke-width:0.97915095"
         id="path64"
         inkscape:connector-curvature="0" /><path
         d="m 902.28789,2958.06 c 0,0 224.29931,-401.38 200.81411,-870.02 l -53.6404,-10.99 c 0,0 -39.6457,443.38 -237.70337,669.52 0,0 -15.28322,-338.93 -158.15414,-662 l -56.19826,-0.08 c 0,0 121.13445,585.66 46.0347,846.13 l 169.74526,88.73 89.1021,-61.29"
         style="fill:#262850;fill-opacity:1;fill-rule:nonzero;stroke:none;stroke-width:0.97915095"
         id="path66"
         inkscape:connector-curvature="0" /><path
         d="m 806.68076,3478.01 c 0,0 -11.11942,19.87 -18.72987,11.04 -7.61333,-8.82 -1.16103,-33.95 14.21614,-39.58 0,0 -1.51672,-6.15 -14.59772,-16.91 -13.07813,-10.75 -36.90752,-8.44 -36.90752,-8.44 0,0 -17.64363,-50.1 -20.75569,-63.36 0,0 24.88592,-7.05 44.58508,-1.94 19.703,5.11 32.18958,-7.56 32.18958,-7.56 l 0.51293,39.05 c 0,0 16.74721,-7.44 32.75044,5.26 16.00611,12.71 46.26287,95.5 13.80772,141.53 0,0 -34.34961,8.16 -42.85456,-13.2 -6.23179,-15.65 1.53877,-44.35 1.53877,-44.35 l -5.7553,-1.54"
         style="fill:#fbc45c;fill-opacity:1;fill-rule:nonzero;stroke:none;stroke-width:0.97915095"
         id="path68"
         inkscape:connector-curvature="0" /><path
         d="m 853.75185,3537.1 c 0,0 33.07258,2.47 23.96075,34.25 -6.04771,21.11 -49.93963,46.53 -86.5557,39.14 -29.26735,-5.91 -36.92286,-23.01 -36.92286,-23.01 0,0 -31.40917,3.47 -48.6252,-22.4 -17.20932,-25.87 1.01434,-64.41 -2.52819,-92.92 -3.54253,-28.51 -32.90384,-36.97 -15.18639,-54.39 17.71458,-17.41 88.07625,-30.61 107.81664,-12.66 19.74039,17.95 6.45613,44.36 6.45613,44.36 0,0 -16.23812,17.04 -13.54215,29.55 1.52055,7.04 7.76001,11.62 18.05588,-4.22 l 8.26527,1.05 c 0,0 0.65098,24.23 6.90578,41.42 6.25384,17.19 31.90004,19.83 31.90004,19.83"
         style="fill:#262850;fill-opacity:1;fill-rule:nonzero;stroke:none;stroke-width:0.97915095"
         id="path70"
         inkscape:connector-curvature="0" /><path
         d="m 643.44053,2930.62 c 0,0 -24.2685,255.21 15.10777,348.86 39.36764,93.64 56.94703,94.81 129.65378,90.48 72.69907,-4.34 128.43714,-68.82 180.07757,-86.84 51.64045,-18 110.76095,-8.05 180.55025,35.18 l 23.582,-45.43 c 0,0 -69.5122,-50.37 -132.6316,-69.52 -63.11554,-19.16 -158.87319,23.1 -158.87319,23.1 0,0 2.70076,-134.69 21.38078,-268.39 0,0 -148.30025,-65.37 -258.84736,-27.44"
         style="fill:#f24e8e;fill-opacity:1;fill-rule:nonzero;stroke:none;stroke-width:0.97915095"
         id="path72"
         inkscape:connector-curvature="0" /><path
         d="m 841.72642,3238.87 43.50267,-117.68 c -4.90585,65.32 -4.32198,105.26 -4.32198,105.26 l -39.18069,12.42"
         style="fill:#dc376e;fill-opacity:1;fill-rule:nonzero;stroke:none;stroke-width:0.97915095"
         id="path74"
         inkscape:connector-curvature="0" /><path
         d="m 1103.102,2088.04 66.7022,-27.36 c 1.4956,-0.61 2.5214,-1.66 3.1254,-2.87 0.604,-1.22 0.7766,-2.61 0.5561,-3.94 -0.2493,-1.56 -1.0258,-3.02 -2.2914,-3.99 -0.882,-0.68 -2.0037,-1.12 -3.3268,-1.18 l -115.8671,-4.9 -2.5388,33.25 53.6404,10.99"
         style="fill:#f24e8e;fill-opacity:1;fill-rule:nonzero;stroke:none;stroke-width:0.97915095"
         id="path76"
         inkscape:connector-curvature="0" /><path
         d="m 1051.2027,2054.22 0.7977,-10.42 115.8671,4.9 c 3.2118,0.14 5.1964,2.52 5.6182,5.17 l 0.01,0.35 h -122.2926"
         style="fill:#dc376e;fill-opacity:1;fill-rule:nonzero;stroke:none;stroke-width:0.97915095"
         id="path78"
         inkscape:connector-curvature="0" /><path
         d="m 778.21779,2493.01 c 28.77744,148.65 33.54044,253.56 33.54044,253.56 l -35.3304,32.77 c 0,0 5.65463,-143.35 1.78996,-286.33"
         style="fill:#1c1f3e;fill-opacity:1;fill-rule:nonzero;stroke:none;stroke-width:0.97915095"
         id="path80"
         inkscape:connector-curvature="0" /><path
         d="m 3662.6726,1909.53 c -195.8891,0 -354.6942,26.64 -354.6942,59.5 0,32.86 158.8051,59.51 354.6942,59.51 195.889,0 354.6846,-26.65 354.6846,-59.51 0,-32.86 -158.7956,-59.5 -354.6846,-59.5"
         style="fill:#f0f0ef;fill-opacity:1;fill-rule:nonzero;stroke:none;stroke-width:0.97915095"
         id="path82"
         inkscape:connector-curvature="0" /><path
         d="m 3152.8836,3479.25 c 0,0 8.83,58.26 -3.95,67.43 -12.7895,9.16 -14.1414,-26.9 -14.1414,-26.9 0,0 -54.0056,61.06 -77.1783,34.4 -23.1726,-26.67 32.9902,-78.86 55.2616,-101.56 l 40.0081,-16.38 v 43.01"
         style="fill:#fbc45c;fill-opacity:1;fill-rule:nonzero;stroke:none;stroke-width:0.97915095"
         id="path84"
         inkscape:connector-curvature="0" /><path
         d="m 3874.3616,3103.82 -3.9883,-30.27 c 0,0 -18.3694,-50.2 -9.5778,-61.04 8.782,-10.83 15.1576,34.17 20.3636,22.5 5.1963,-11.66 10.9967,-52.71 22.1851,-59.38 11.1789,-6.66 44.936,45.63 6.9509,115.87 l -35.9335,12.32"
         style="fill:#fbc45c;fill-opacity:1;fill-rule:nonzero;stroke:none;stroke-width:0.97915095"
         id="path86"
         inkscape:connector-curvature="0" /><path
         d="m 3570.0011,3240.09 32.7313,77.42 c 0,0 227.6232,9.9 307.5627,-226.01 l -39.9218,-17.95 c 0,0 -82.9116,201.83 -300.3722,166.54"
         style="fill:#33346f;fill-opacity:1;fill-rule:nonzero;stroke:none;stroke-width:0.97915095"
         id="path88"
         inkscape:connector-curvature="0" /><path
         d="m 3856.7113,2153.24 -12.9238,-113.01 c -0.2684,-2.34 0.9108,-4.06 2.5119,-4.87 2.138,-1.08 5.0525,-0.53 6.2797,2.36 l 65.29,132.27 -42.5008,22.74 -34.5241,-13.26 15.8671,-26.23"
         style="fill:#f57d64;fill-opacity:1;fill-rule:nonzero;stroke:none;stroke-width:0.97915095"
         id="path90"
         inkscape:connector-curvature="0" /><path
         d="m 3846.2994,2035.36 c 2.138,-1.08 5.0525,-0.53 6.2797,2.36 l 65.29,132.27 -6.5386,3.51 -67.0636,-135.87 c 0.4506,-1 1.1217,-1.81 2.0325,-2.27"
         style="fill:#de573c;fill-opacity:1;fill-rule:nonzero;stroke:none;stroke-width:0.97915095"
         id="path92"
         inkscape:connector-curvature="0" /><path
         d="m 3456.1128,2010.42 -102.2397,-39.75 c -2.1188,-0.82 -3.0488,-2.69 -3.0008,-4.55 0.057,-2.49 1.8503,-4.94 4.8895,-4.74 l 142.6313,-0.01 -0.077,49.82 -27.0939,25.95 -15.1097,-26.72"
         style="fill:#f57d64;fill-opacity:1;fill-rule:nonzero;stroke:none;stroke-width:0.97915095"
         id="path94"
         inkscape:connector-curvature="0" /><path
         d="m 3458.6726,2810.01 c 0,0 -121.9321,-500.69 -2.5598,-799.59 l 42.2036,0.77 c 0,0 -77.4372,486.97 56.8818,670.44 131.3469,179.41 80.2942,-3.13 80.2942,-3.13 0,0 -38.3495,-312.3 221.2189,-525.26 l 18.657,39.49 c 0,0 -227.0959,267.28 -142.056,522.42 4.3431,12.99 -38.8288,164.41 -38.8288,164.41 l -235.8109,-69.55"
         style="fill:#fbc45c;fill-opacity:1;fill-rule:nonzero;stroke:none;stroke-width:0.97915095"
         id="path96"
         inkscape:connector-curvature="0" /><path
         d="m 3733.3123,2715.15 c 3.2405,9.71 -20.0184,96.63 -31.993,140.01 -28.9922,-0.95 -64.1299,-2.1 -100.8687,-3.33 l -141.778,-41.82 c 0,0 -30.3152,-124.48 -45.9139,-286.36 l 84.5989,16.21 c 12.2335,55.3 30.718,104.73 57.8406,141.77 131.3469,179.41 80.2942,-3.13 80.2942,-3.13 0,0 -7.0659,-58 5.5703,-140.97 l 73.6213,41.26 c -1.6682,44.78 3.4323,90.75 18.6283,136.36"
         style="fill:#f0ad42;fill-opacity:1;fill-rule:nonzero;stroke:none;stroke-width:0.97915095"
         id="path98"
         inkscape:connector-curvature="0" /><path
         d="m 3443.0069,2900.85 c 0,0 -48.3971,-130.84 -111.9133,-287.88 0,0 338.4435,-132.96 477.8151,97.04 0,0 -51.2541,169.55 -96.5927,252.26 l -169.0253,25.24 -100.2838,-86.66"
         style="fill:#f57d64;fill-opacity:1;fill-rule:nonzero;stroke:none;stroke-width:0.97915095"
         id="path100"
         inkscape:connector-curvature="0" /><path
         d="m 3466.5151,3429.75 c 0,0 11.1213,19.86 18.7241,11.04 7.6124,-8.83 1.1697,-33.95 -14.2085,-39.58 0,0 1.5148,-6.16 14.592,-16.92 13.0868,-10.75 36.9114,-8.45 36.9114,-8.45 0,0 17.6503,-50.09 20.7566,-63.35 0,0 -24.8888,-7.05 -44.5812,-1.94 -19.7021,5.11 -32.1944,-7.56 -32.1944,-7.56 l -10.8241,38.17 c 0,0 -6.4236,-6.56 -22.4345,6.14 -16.0013,12.7 -46.2686,95.5 -13.8058,141.53 0,0 34.342,8.17 42.8555,-13.2 6.2222,-15.64 -1.5435,-44.35 -1.5435,-44.35 l 5.7524,-1.53"
         style="fill:#fbc45c;fill-opacity:1;fill-rule:nonzero;stroke:none;stroke-width:0.97915095"
         id="path102"
         inkscape:connector-curvature="0" /><path
         d="m 3602.7324,3317.51 c 0,0 -82.8157,4.88 -155.2578,3.28 -72.4422,-1.61 -245.0914,74.36 -294.591,158.46 l -40.0081,-26.63 c 0,0 66.7089,-147.44 305.0412,-212.53 0,0 33.1436,-248.41 25.0902,-339.24 0,0 210.318,-3.01 269.3091,61.42 0,0 -26.4899,262.74 -109.5836,355.24"
         style="fill:#33346f;fill-opacity:1;fill-rule:nonzero;stroke:none;stroke-width:0.97915095"
         id="path104"
         inkscape:connector-curvature="0" /><path
         d="m 3534.9593,3500.37 c 0,0 -4.0171,46.31 -60.8031,36.31 -56.7764,-10 -87.0628,-38.64 -69.1249,-63.49 17.938,-24.85 50.3816,-15.64 55.7314,-41.91 5.3497,-26.27 -15.081,-57.72 7.1234,-85.33 22.1947,-27.61 -12.2718,-82.61 24.5341,-131.77 36.8058,-49.17 171.8343,0 170.2332,65.83 -1.6011,65.83 -59.921,61.67 -85.4905,105 -25.5599,43.33 2.6749,81.55 -42.2036,115.36"
         style="fill:#f25386;fill-opacity:1;fill-rule:nonzero;stroke:none;stroke-width:0.97915095"
         id="path106"
         inkscape:connector-curvature="0" /><path
         d="m 3350.8723,1966.12 c 0.057,-2.49 1.8503,-4.94 4.8895,-4.74 l 142.6313,-0.01 -0.01,7.66 H 3351.869 c -0.6424,-0.87 -1.0259,-1.86 -0.9971,-2.91"
         style="fill:#de573c;fill-opacity:1;fill-rule:nonzero;stroke:none;stroke-width:0.97915095"
         id="path108"
         inkscape:connector-curvature="0" /><path
         d="m 3417.9167,3240.09 c 0,0 9.6641,-72.41 17.2861,-153.34 9.9325,65.29 29.1839,140.96 29.1839,140.96 l -46.47,12.38"
         style="fill:#262850;fill-opacity:1;fill-rule:nonzero;stroke:none;stroke-width:0.97915095"
         id="path110"
         inkscape:connector-curvature="0" /><path
         d="m 2268.2574,1164.691 c -195.8891,0 -354.6942,26.641 -354.6942,59.5 0,32.86 158.8051,59.5 354.6942,59.5 195.889,0 354.6846,-26.64 354.6846,-59.5 0,-32.859 -158.7956,-59.5 -354.6846,-59.5"
         style="fill:#f0f0ef;fill-opacity:1;fill-rule:nonzero;stroke:none;stroke-width:0.97915095"
         id="path112"
         inkscape:connector-curvature="0" /><path
         d="m 2508.21,1260.781 0.048,-10.449 115.8921,-4.07 c 3.2213,-0.121 5.3689,2.097 5.9825,4.718 l 0.029,0.34 -121.9513,9.461"
         style="fill:#a469bb;fill-opacity:1;fill-rule:nonzero;stroke:none;stroke-width:0.97915095"
         id="path114"
         inkscape:connector-curvature="0" /><path
         d="m 1989.6198,1352.199 2.3489,-74.711 c 0.048,-1.679 -0.4602,-3.078 -1.2943,-4.136 -0.8245,-1.063 -1.9846,-1.782 -3.2405,-2.102 l -1.9175,-0.168 c -1.9367,0.137 -3.8158,1.238 -4.8704,3.52 l -51.1965,111.398 38.1289,10.531 22.0414,-44.332"
         style="fill:#b880c6;fill-opacity:1;fill-rule:nonzero;stroke:none;stroke-width:0.97915095"
         id="path116"
         inkscape:connector-curvature="0" /><path
         d="m 1939.2861,1388.512 -9.8366,-2.512 51.1965,-111.398 c 1.3998,-3.032 4.2856,-3.981 6.7879,-3.352 l 0.3068,0.141 -48.4546,117.121"
         style="fill:#a469bb;fill-opacity:1;fill-rule:nonzero;stroke:none;stroke-width:0.97915095"
         id="path118"
         inkscape:connector-curvature="0" /><path
         d="m 2562.369,1290.5 64.5613,-32.441 c 1.4477,-0.739 2.4064,-1.848 2.9242,-3.11 0.5081,-1.258 0.5848,-2.66 0.278,-3.969 -0.3643,-1.539 -1.2559,-2.929 -2.579,-3.8 -0.9204,-0.621 -2.0709,-0.969 -3.4035,-0.918 l -115.8921,4.07 -0.163,33.359 54.2741,6.809"
         style="fill:#b880c6;fill-opacity:1;fill-rule:nonzero;stroke:none;stroke-width:0.97915095"
         id="path120"
         inkscape:connector-curvature="0" /><path
         d="m 2342.3006,2095.01 c 0,0 234.4207,-311.51 226.0893,-807.541 l -60.295,-3.778 c 0,0 -53.1427,471.059 -242.0714,612.999 0,0 42.8364,-381.819 -275.9339,-559.35 l -22.5112,59.191 c 0,0 268.2641,251.789 125.1151,694.309 l 90.0542,134.96 159.5529,-130.79"
         style="fill:#583021;fill-opacity:1;fill-rule:nonzero;stroke:none;stroke-width:0.97915095"
         id="path122"
         inkscape:connector-curvature="0" /><path
         d="m 2144.2736,2470.76 c 0,0 192.8211,-10.98 264.7263,212.26 l 45.1086,-17.78 c 0,0 -28.4553,-171.63 -182.9845,-239.67 l -126.8504,45.19"
         style="fill:#a469bb;fill-opacity:1;fill-rule:nonzero;stroke:none;stroke-width:0.97915095"
         id="path124"
         inkscape:connector-curvature="0" /><path
         d="m 2204.5302,2589.95 c 0,0 -11.1118,19.87 -18.7242,11.05 -7.6123,-8.83 -1.16,-33.96 14.2181,-39.58 0,0 -1.5148,-6.16 -14.592,-16.92 -13.0867,-10.75 -36.9113,-8.45 -36.9113,-8.45 0,0 -17.6504,-50.08 -20.7567,-63.35 0,0 24.8792,-7.05 44.5813,-1.94 19.702,5.11 32.1848,-7.56 32.1848,-7.56 l 0.5177,39.06 c 0,0 16.7491,-7.45 32.7504,5.26 16.0109,12.69 46.2591,95.49 13.8058,141.52 0,0 -34.3419,8.17 -42.8555,-13.2 -6.2222,-15.64 1.5436,-44.35 1.5436,-44.35 l -5.762,-1.54"
         style="fill:#fbc45c;fill-opacity:1;fill-rule:nonzero;stroke:none;stroke-width:0.97915095"
         id="path126"
         inkscape:connector-curvature="0" /><path
         d="m 2251.6041,2649.04 c 0,0 13.6908,6.24 11.2939,21.11 -2.3968,14.86 -23.2877,64.86 -68.5592,53.2 -45.2524,-11.67 -97.609,-40 -112.7858,-35 -15.1768,5 -3.2789,-62.5 7.948,-95 11.2172,-32.5 39.1739,-63.23 64.7434,-65.79 25.5695,-2.55 59.8156,20.38 57.0736,29.33 -2.742,8.96 -14.5536,8.93 -18.6378,24.77 -4.0842,15.85 9.3956,14.3 18.6378,2.99 l 6.0401,4.93 c 0,0 -16.2027,73.5 34.246,59.46"
         style="fill:#583021;fill-opacity:1;fill-rule:nonzero;stroke:none;stroke-width:0.97915095"
         id="path128"
         inkscape:connector-curvature="0" /><path
         d="m 2273.6742,2469.79 c 0,0 -111.4435,44.1 -162.5729,8.41 -51.1294,-35.69 -14.8125,-257.31 -18.4078,-387.36 0,0 138.8539,-44.16 249.6071,4.17 0,0 -20.9484,216.86 -22.607,265.79 0,0 234.8233,-4.43 312.7207,284.98 l -52.7305,14.23 c 0,0 -69.1441,-268.24 -306.0096,-190.22"
         style="fill:#b880c6;fill-opacity:1;fill-rule:nonzero;stroke:none;stroke-width:0.97915095"
         id="path130"
         inkscape:connector-curvature="0" /><path
         d="m 2359.8742,2717.12 71.7423,423.07 331.0805,-45.75 -60.6976,-424.29 -342.1252,46.97"
         style="fill:#f24e8e;fill-opacity:1;fill-rule:nonzero;stroke:none;stroke-width:0.97915095"
         id="path132"
         inkscape:connector-curvature="0" /><path
         d="m 2632.4143,2645.78 c 0,0 43.1431,20.17 42.8459,41.1 -0.2972,20.94 -32.3861,-8.62 -32.3861,-8.62 l -60.7455,8.35 -2.4448,-26.6 52.7305,-14.23"
         style="fill:#fbc45c;fill-opacity:1;fill-rule:nonzero;stroke:none;stroke-width:0.97915095"
         id="path134"
         inkscape:connector-curvature="0" /><path
         d="m 2408.9999,2683.02 c 0,0 -15.0713,37.61 -7.8808,52.3 7.1905,14.69 20.3636,-26.66 20.3636,-26.66 l 51.0719,-7.01 -18.4461,-36.41 -45.1086,17.78"
         style="fill:#fbc45c;fill-opacity:1;fill-rule:nonzero;stroke:none;stroke-width:0.97915095"
         id="path136"
         inkscape:connector-curvature="0" /><path
         d="m 2254.4132,1714.582 c 20.3828,102.928 11.6103,182.108 11.6103,182.108 l -55.856,29.99 c 0,0 27.6116,-110.45 44.2457,-212.098"
         style="fill:#3d1f18;fill-opacity:1;fill-rule:nonzero;stroke:none;stroke-width:0.97915095"
         id="path138"
         inkscape:connector-curvature="0" /><path
         d="m 2325.1105,2284.21 c -2.79,33.48 -4.9375,62.25 -5.4169,76.59 l -56.5079,5.4 c 0,0 30.8425,-39.46 61.9248,-81.99"
         style="fill:#a469bb;fill-opacity:1;fill-rule:nonzero;stroke:none;stroke-width:0.97915095"
         id="path140"
         inkscape:connector-curvature="0" /><path
         d="m 1461.7107,3982.53 c 0,0 -46.4892,-77.52 -8.1397,-101.69 38.3495,-24.16 63.9094,56.06 63.9094,56.06 l 27.6979,4.3 -20.9964,26.5 -35.2144,30.64 -27.2568,-15.81"
         style="fill:#fbc45c;fill-opacity:1;fill-rule:nonzero;stroke:none;stroke-width:0.97915095"
         id="path142"
         inkscape:connector-curvature="0" /><path
         d="m 1919.354,4557.51 c -7.6987,0.77 29.5482,23.25 21.5715,23.74 -12.4923,0.77 -219.9821,-78.74 -219.9821,-78.74 0,0 -148.3165,-60.45 -259.2327,-519.98 l 62.4712,-14.83 c 0,0 72.0299,264.81 204.1151,403.08 h 290.2191 c 0,0 -5.9633,23.13 -14.4865,49.6 140.244,-87.87 236.5011,-320.37 236.5011,-320.37 l 58.6555,12.5 c -128.2885,412.5 -379.8322,445 -379.8322,445"
         style="fill:#f57d64;fill-opacity:1;fill-rule:nonzero;stroke:none;stroke-width:0.97915095"
         id="path144"
         inkscape:connector-curvature="0" /><path
         d="m 1672.4793,4552.73 c 0,0 -18.0146,-21.7 4.1705,-65.13 22.1948,-43.42 100.8879,-65.65 127.186,-42.6 24.3136,21.3 30.5166,65.84 13.1635,97.17 0,0 0.9299,34.51 -13.1635,48.76 -19.098,19.33 -28.6375,-13.13 -28.6375,-13.13 0,0 -63.5738,39.33 -102.719,-25.07"
         style="fill:#fbc45c;fill-opacity:1;fill-rule:nonzero;stroke:none;stroke-width:0.97915095"
         id="path146"
         inkscape:connector-curvature="0" /><path
         d="m 1761.0474,4676.26 c 0,0 -37.8605,25.4 -84.3976,0 -46.5371,-25.4 -60.1703,-109.43 -86.8615,-134.09 -26.6912,-24.66 11.9842,-64.05 61.1194,-42.16 33.9489,15.12 59.2404,60.49 80.2942,73.75 21.0539,13.26 43.9964,4.04 43.9964,4.04 0,0 11.2748,12.6 21.9935,5.53 10.7091,-7.07 19.8075,-41.16 19.8075,-41.16 0,0 -4.7074,-33.98 9.8749,-54.57 14.5824,-20.59 84.0812,-17.47 112.8529,19.91 32.2615,41.92 15.5028,107.5 -19.1747,113.75 -28.7621,5.19 -50.3337,-12.5 -70.7068,15 -20.3732,27.5 -60.0936,71.25 -88.7982,40"
         style="fill:#583021;fill-opacity:1;fill-rule:nonzero;stroke:none;stroke-width:0.97915095"
         id="path148"
         inkscape:connector-curvature="0" /><path
         d="m 1769.0241,4407.71 -40.7271,-36.93 h 92.5372 z"
         style="fill:#e3654d;fill-opacity:1;fill-rule:nonzero;stroke:none;stroke-width:0.97915095"
         id="path150"
         inkscape:connector-curvature="0" /><path
         d="m 2240.5307,4100.01 -10.0284,-24.5 17.4107,3.42 c 0,0 3.0008,-84.75 38.1577,-74.75 35.1569,10 13.1155,108.33 13.1155,108.33 l -58.6555,-12.5"
         style="fill:#fbc45c;fill-opacity:1;fill-rule:nonzero;stroke:none;stroke-width:0.97915095"
         id="path152"
         inkscape:connector-curvature="0" /><path
         d="m 3884.4379,4230.48 h -443.5403 v 68.02 h 443.5403 v -68.02"
         style="fill:#ffffff;fill-opacity:1;fill-rule:nonzero;stroke:none;stroke-width:0.97915095"
         id="path154"
         inkscape:connector-curvature="0" /><g
         id="g156"
         transform="scale(10)" /><path
         d="m 2548.3427,945.57 -0.01,0.102 0.01,-0.102"
         style="fill:#969797;fill-opacity:1;fill-rule:nonzero;stroke:none;stroke-width:0.97915095"
         id="path208"
         inkscape:connector-curvature="0" /><path
         d="m 2549.1288,940.391 h 0.01 c -0.2876,1.468 -0.5177,2.941 -0.6998,4.379 0.1821,-1.461 0.4122,-2.93 0.6902,-4.379"
         style="fill:#969797;fill-opacity:1;fill-rule:nonzero;stroke:none;stroke-width:0.97915095"
         id="path210"
         inkscape:connector-curvature="0" /><path
         d="m 2554.2677,925.34 -0.096,0.219 0.096,-0.219"
         style="fill:#969797;fill-opacity:1;fill-rule:nonzero;stroke:none;stroke-width:0.97915095"
         id="path212"
         inkscape:connector-curvature="0" /><path
         d="m 2553.7883,926.352 -0.3931,0.828 0.3931,-0.828"
         style="fill:#969797;fill-opacity:1;fill-rule:nonzero;stroke:none;stroke-width:0.97915095"
         id="path214"
         inkscape:connector-curvature="0" /><path
         d="m 2550.5765,934.59 c 0.7574,-2.5 1.6778,-4.918 2.7324,-7.238 -1.0737,2.367 -1.975,4.789 -2.7132,7.238 h -0.019"
         style="fill:#969797;fill-opacity:1;fill-rule:nonzero;stroke:none;stroke-width:0.97915095"
         id="path216"
         inkscape:connector-curvature="0" /><path
         inkscape:connector-curvature="0"
         style="opacity:0.1;fill:#4285f4;stroke-width:4.64154577"
         d="m 4840.4079,3917.0897 a 1024.67,1125.5256 0 0 1 -198.5389,293.7254 l -2754.0361,25.1987 2267.4983,295.7198 a 1494.2017,1641.272 0 0 1 -460.0542,84.7416 c -218.2911,163.6942 -498.8496,262.1054 -804.8733,262.1054 -274.5799,0 -528.4777,-79.2446 -735.4755,-213.7025 -176.0853,84.3037 -376.5286,131.9283 -589.5051,131.9283 -611.91459,0 -1121.79166,-393.5472 -1236.18517,-915.4716 z"
         id="path13" /><path
         inkscape:connector-curvature="0"
         style="opacity:0.1;fill:#4285f4;stroke-width:5.15175438"
         d="m 4924.8321,3399.7128 a 858.18237,1200.2264 0 0 1 -84.4242,517.3769 L 145.40965,3334.2183 A 913.46325,1277.5404 0 0 1 35.414195,3005.7705 L 1489.3146,2749.5191 2.2630885,2562.6616 C 47.00183,1822.7251 583.5183,1238.3915 1238.917,1238.3915 c 329.8992,0 629.6532,148.1091 851.7786,389.5557 222.8226,-246.0159 525.321,-397.1714 858.923,-397.1714 494.7399,0 921.7838,333.078 1120.6468,814.6917 398.9459,149.6932 708.85,525.6626 814.9248,995.8833 L 3046.5453,3378.389 h 1878.2868 c 0,7.0064 0,14.0738 0,21.3238 z"
         id="path15" /></g></g></svg>